<svg xmlns="http://www.w3.org/2000/svg" width="47.69" height="47.69" viewBox="0 0 47.69 47.69">
  <g id="_1a21d0c510f8f33bc81fc8363d352ebd" data-name="1a21d0c510f8f33bc81fc8363d352ebd" transform="translate(0.125 0.125)">
    <path id="Path_93948" data-name="Path 93948" d="M45.715,55.714A37.414,37.414,0,0,1,8.27,18.27a1,1,0,0,1,1-1H19.325a1,1,0,0,1,1,1,25.174,25.174,0,0,0,1.7,9.077,1,1,0,0,1-.373,1.189L18.14,30.905A30.44,30.44,0,0,0,32.713,45.673l2.46-3.48a1,1,0,0,1,1.188-.351,25.17,25.17,0,0,0,9.356,1.817,1,1,0,0,1,1,1V54.715A1,1,0,0,1,45.715,55.714ZM10.283,19.269A35.489,35.489,0,0,0,31.918,50.93a35.169,35.169,0,0,0,12.8,2.771V45.638a27.121,27.121,0,0,1-8.359-1.656L33.866,47.5a1,1,0,0,1-1.222.337,32.437,32.437,0,0,1-16.677-16.9,1,1,0,0,1,.36-1.222l3.557-2.4a27.132,27.132,0,0,1-1.539-8.047Z" transform="translate(-8.27 -8.274)" fill="#08558c" stroke="#08558c" stroke-linecap="round" stroke-width="0.25"/>
    <path id="Path_93949" data-name="Path 93949" d="M42.725,34.264a1,1,0,0,1-1-1,11,11,0,0,0-11-11,1,1,0,0,1,0-2A12.995,12.995,0,0,1,43.724,33.265,1,1,0,0,1,42.725,34.264Z" transform="translate(-8.279 -8.275)" fill="#08558c" stroke="#08558c" stroke-linecap="round" stroke-width="0.25"/>
    <path id="Path_93950" data-name="Path 93950" d="M48.722,34.262a1,1,0,0,1-1-1A16.993,16.993,0,0,0,30.73,16.269a1,1,0,0,1,0-2A18.977,18.977,0,0,1,49.722,33.262,1,1,0,0,1,48.722,34.262Z" transform="translate(-8.279 -8.272)" fill="#08558c" stroke="#08558c" stroke-linecap="round" stroke-width="0.25"/>
    <path id="Path_93951" data-name="Path 93951" d="M54.72,34.259a1,1,0,0,1-1-1A22.971,22.971,0,0,0,30.73,10.269a1,1,0,0,1,0-2,24.97,24.97,0,0,1,24.99,24.99A1,1,0,0,1,54.72,34.259Z" transform="translate(-8.279 -8.27)" fill="#08558c" stroke="#08558c" stroke-linecap="round" stroke-width="0.25"/>
  </g>
</svg>
