<svg id="_1a21d0c510f8f33bc81fc8363d352ebd" data-name="1a21d0c510f8f33bc81fc8363d352ebd" xmlns="http://www.w3.org/2000/svg" width="23.999" height="23.999" viewBox="0 0 23.999 23.999">
  <path id="Path_93947" data-name="Path 93947" d="M31.563,41.269A23.274,23.274,0,0,1,8.27,17.976a.706.706,0,0,1,.706-.706h6.232a.706.706,0,0,1,.706.7,15.516,15.516,0,0,0,1.049,5.595.706.706,0,0,1-.264.84l-2.117,1.428a18.78,18.78,0,0,0,8.894,9.013l1.482-2.1A.706.706,0,0,1,25.8,32.5a15.514,15.514,0,0,0,5.767,1.12.706.706,0,0,1,.7.706v6.232A.706.706,0,0,1,31.563,41.269ZM9.693,18.682A21.861,21.861,0,0,0,30.857,39.846V35.021A16.894,16.894,0,0,1,25.8,34.015l-1.5,2.129a.706.706,0,0,1-.863.238,20.189,20.189,0,0,1-10.38-10.522A.706.706,0,0,1,13.3,25l2.149-1.45a16.9,16.9,0,0,1-.933-4.867Z" transform="translate(-8.27 -17.27)" fill="#fff"/>
</svg>
