<svg xmlns="http://www.w3.org/2000/svg" width="50" height="50.008" viewBox="0 0 50 50.008">
  <path id="ab7f4feebefad17ad3fd1cd219b44bef" d="M48.1,19.192l-3.376-.616a.709.709,0,0,1-.488-.344.684.684,0,0,1-.04-.6l1.528-3.968a2.307,2.307,0,0,0-.52-2.456L40.792,6.792a2.311,2.311,0,0,0-2.456-.52L34.368,7.8a.717.717,0,0,1-.6-.04.69.69,0,0,1-.344-.488l-.616-3.384A2.3,2.3,0,0,0,30.544,2H21.456a2.3,2.3,0,0,0-2.264,1.9L18.576,7.28a.709.709,0,0,1-.344.488.684.684,0,0,1-.6.04L13.664,6.28a2.292,2.292,0,0,0-2.456.52L6.792,11.216a2.307,2.307,0,0,0-.52,2.456L7.8,17.64a.717.717,0,0,1-.04.6.69.69,0,0,1-.488.344L3.888,19.2A2.3,2.3,0,0,0,2,21.464v9.088a2.3,2.3,0,0,0,1.9,2.264l3.376.616a.709.709,0,0,1,.488.344.684.684,0,0,1,.04.6L6.272,38.344a2.307,2.307,0,0,0,.52,2.456l4.416,4.416a2.3,2.3,0,0,0,2.456.52l3.968-1.528a.717.717,0,0,1,.6.04.69.69,0,0,1,.344.488l.616,3.384a2.3,2.3,0,0,0,2.264,1.888h9.088a2.3,2.3,0,0,0,2.264-1.9l.616-3.376a.709.709,0,0,1,.344-.488.684.684,0,0,1,.6-.04l3.968,1.528a2.307,2.307,0,0,0,2.456-.52L45.208,40.8a2.307,2.307,0,0,0,.52-2.456L44.2,34.376a.717.717,0,0,1,.04-.6.69.69,0,0,1,.488-.344l3.384-.616A2.3,2.3,0,0,0,50,30.552V21.464A2.3,2.3,0,0,0,48.1,19.2ZM37.872,36.728l-7.024-7.68a6.339,6.339,0,0,0,1.1-3.1,6.621,6.621,0,0,0-6.48-6.992,6.525,6.525,0,0,0-1.728.232L26.92,23.6a2.311,2.311,0,0,1-.5,3.2,2.276,2.276,0,0,1-1.392.464,2.326,2.326,0,0,1-1.9-.976l-3.152-4.376a6.332,6.332,0,0,0-1.04,3.784,6.5,6.5,0,0,0,8.776,5.816l6.68,8.1a15.981,15.981,0,1,1,3.472-2.888Z" transform="translate(-1 -1)" fill="none" stroke="#08558c" stroke-width="2"/>
</svg>
