<svg xmlns="http://www.w3.org/2000/svg" xmlns:xlink="http://www.w3.org/1999/xlink" width="51.354" height="77" viewBox="0 0 51.354 77">
  <defs>
    <linearGradient id="linear-gradient" x1="0.237" y1="0.199" x2="0.881" y2="0.873" gradientUnits="objectBoundingBox">
      <stop offset="0" stop-color="#ffb645"/>
      <stop offset="1" stop-color="#ffb645"/>
    </linearGradient>
  </defs>
  <g id="Group_229" data-name="Group 229" transform="translate(0)">
    <path id="Path_541" data-name="Path 541" d="M203.838,351.21h-1.6v7.429h6.943v-1.6h-5.339Z" transform="translate(-197.241 -302.716)" fill="url(#linear-gradient)"/>
    <path id="Path_542" data-name="Path 542" d="M444.879,353.949h-6.636v1.6h8.24v-7.932h-1.6Z" transform="translate(-400.123 -299.632)" fill="url(#linear-gradient)"/>
    <path id="Path_543" data-name="Path 543" d="M244.321,313.076l-1.32-.912a23.336,23.336,0,0,1-38.446,0l-1.32.912a24.939,24.939,0,0,0,41.085,0Z" transform="translate(-198.102 -269.151)" fill="url(#linear-gradient)"/>
    <path id="Path_544" data-name="Path 544" d="M255.649,133.318a15.339,15.339,0,1,0-15.339-15.339A15.356,15.356,0,0,0,255.649,133.318Zm.8-29.033a13.663,13.663,0,0,1,8.559,3.673h-8.559Zm0,5.276h10.027a13.75,13.75,0,0,1,1.79,3.005H256.451Zm0,4.61h12.384a13.653,13.653,0,0,1,.508,3.005H256.451Zm0,4.61h12.892a13.647,13.647,0,0,1-.508,3.005H256.451Zm0,4.61h11.817a13.718,13.718,0,0,1-1.79,3.005H256.451Zm0,4.61h8.559a13.663,13.663,0,0,1-8.559,3.673Zm-1.6,3.673A13.663,13.663,0,0,1,246.287,128h8.559Zm0-27.388v3.672h-8.559A13.663,13.663,0,0,1,254.847,104.285Zm-10.027,5.276h10.027v3.005H243.03A13.719,13.719,0,0,1,244.819,109.561Zm-2.357,4.61h12.384v3.005H241.955A13.658,13.658,0,0,1,242.463,114.171Zm-.508,4.61h12.892v3.005H242.463a13.655,13.655,0,0,1-.508-3.005Zm12.892,4.61V126.4H244.819a13.753,13.753,0,0,1-1.79-3.005Z" transform="translate(-229.973 -89.036)" fill="url(#linear-gradient)"/>
    <path id="Path_545" data-name="Path 545" d="M203.621,82.723h.186a3.288,3.288,0,0,0,3.284-3.284V77.573h3.673l4.327-10.994a3.516,3.516,0,0,0,2.926-3.458V12.6A3.522,3.522,0,0,0,214.5,9.079h-7.883l1.942-3.355H176.12l1.946,3.355h-7.886a3.522,3.522,0,0,0-3.518,3.518V63.122a3.516,3.516,0,0,0,2.927,3.458l4.327,10.993h3.673V79.44a3.288,3.288,0,0,0,3.284,3.284h.186a3.288,3.288,0,0,0,3.284-3.284V77.574h15.993V79.44a3.287,3.287,0,0,0,3.284,3.284Zm1.866-3.284a1.682,1.682,0,0,1-1.68,1.68h-.186a1.682,1.682,0,0,1-1.68-1.68V77.573h3.546Zm.288-72.111-3.578,6.18H182.491l-3.585-6.179Zm-31.793,3.355H179l2.569,4.429h21.556l2.564-4.429h5.01V35.5a18.356,18.356,0,0,1-36.712,0Zm-5.716,52.439V12.6a1.916,1.916,0,0,1,1.914-1.914h2.2V35.5a19.96,19.96,0,0,0,39.92,0V10.683h2.2a1.916,1.916,0,0,1,1.914,1.914V63.122a1.915,1.915,0,0,1-1.9,1.912H170.167a1.915,1.915,0,0,1-1.9-1.912Zm14.473,16.317a1.682,1.682,0,0,1-1.68,1.68h-.186a1.682,1.682,0,0,1-1.68-1.68V77.573h3.546Zm1.6-3.47h-9.335l-3.672-9.33h42.005l-3.672,9.33Z" transform="translate(-166.663 -5.724)" fill="url(#linear-gradient)"/>
    <path id="Path_546" data-name="Path 546" d="M388.8,33.445h2.117v1.6H388.8Z" transform="translate(-357.62 -29.554)" fill="url(#linear-gradient)"/>
    <path id="Path_547" data-name="Path 547" d="M295.09,33.445h11.178v1.6H295.09Z" transform="translate(-277.064 -29.554)" fill="url(#linear-gradient)"/>
    <path id="Path_548" data-name="Path 548" d="M322.958,454.58a4.353,4.353,0,0,0-4.348,4.349v.8h8.7v-.8a4.354,4.354,0,0,0-4.349-4.349Zm-2.625,3.547a2.745,2.745,0,0,1,5.25,0Z" transform="translate(-297.282 -391.577)" fill="url(#linear-gradient)"/>
    <g id="Group_44527" data-name="Group 44527" transform="translate(13.147 15.956)">
      <circle id="Ellipse_58" data-name="Ellipse 58" cx="13.75" cy="13.75" r="13.75" transform="translate(-1.246 -0.756)" fill="transparent"/>
      <g id="Group_44524" data-name="Group 44524" transform="translate(4.563 3.094)">
        <g id="Group_44526" data-name="Group 44526" transform="translate(0 0)">
          <g id="Group_44525" data-name="Group 44525">
            <path id="Path_70340" data-name="Path 70340" d="M22.519,20.918a.386.386,0,0,1-.348-.216c-1.344-2.732-4.778-2.356-4.812-2.354a.386.386,0,0,1-.428-.338,5.052,5.052,0,0,1,.263-2.395A4.341,4.341,0,0,1,19.682,13.1a4.792,4.792,0,0,1,3.849.127c3.334,1.6,2.8,6.315,2.773,6.515a.386.386,0,1,1-.767-.093c.005-.044.492-4.367-2.34-5.725a4.021,4.021,0,0,0-3.227-.107,3.578,3.578,0,0,0-2.053,2.068,4.167,4.167,0,0,0-.249,1.674c1.068-.016,3.913.191,5.2,2.8a.386.386,0,0,1-.176.517.377.377,0,0,1-.171.038Z" transform="translate(-16.638 -12.511)" fill="url(#linear-gradient)"/>
            <path id="Path_70340_-_Outline" data-name="Path 70340 - Outline" d="M22.525,21.168h-.01a.631.631,0,0,1-.568-.355,4.474,4.474,0,0,0-4.139-2.233c-.208,0-.353.011-.42.017h0a.636.636,0,0,1-.7-.557,5.32,5.32,0,0,1,.276-2.51,4.6,4.6,0,0,1,2.632-2.66,5.016,5.016,0,0,1,1.87-.36,5.072,5.072,0,0,1,2.178.495c3.491,1.674,2.939,6.564,2.913,6.771a.636.636,0,1,1-1.263-.154c0-.042.463-4.192-2.2-5.47a3.794,3.794,0,0,0-1.628-.369,3.755,3.755,0,0,0-1.4.269,3.334,3.334,0,0,0-1.912,1.925,3.886,3.886,0,0,0-.239,1.336,5.688,5.688,0,0,1,5.179,2.939.633.633,0,0,1-.565.915ZM17.808,18.08A4.956,4.956,0,0,1,22.4,20.592a.135.135,0,0,0,.122.076h.007a.127.127,0,0,0,.055-.013.136.136,0,0,0,.061-.182c-1.183-2.4-3.8-2.661-4.867-2.661h-.1l-.24,0-.014-.239a4.391,4.391,0,0,1,.264-1.775,3.834,3.834,0,0,1,2.2-2.215,4.249,4.249,0,0,1,1.582-.3A4.3,4.3,0,0,1,23.3,13.7c3.006,1.442,2.486,5.937,2.48,5.982a.136.136,0,0,0,.271.032c.023-.193.538-4.739-2.633-6.26a4.569,4.569,0,0,0-1.962-.446,4.521,4.521,0,0,0-1.686.325A4.1,4.1,0,0,0,17.428,15.7a4.819,4.819,0,0,0-.249,2.274.137.137,0,0,0,.151.122h.012C17.417,18.092,17.58,18.08,17.808,18.08Z" transform="translate(-16.638 -12.511)" fill="url(#linear-gradient)"/>
            <path id="Path_70341" data-name="Path 70341" d="M23.3,46.291a4.373,4.373,0,0,1-2.712-.956,4.794,4.794,0,0,1-1.815-3.4c-.282-3.687,4.07-5.58,4.256-5.659a.386.386,0,1,1,.3.711c-.041.017-4.028,1.758-3.788,4.89a4.017,4.017,0,0,0,1.521,2.849,3.576,3.576,0,0,0,2.819.743,4.166,4.166,0,0,0,1.574-.621c-.541-.9-1.792-3.484-.174-5.9a.386.386,0,0,1,.642.43c-1.687,2.52.283,5.231.368,5.345a.386.386,0,0,1-.077.541,5.054,5.054,0,0,1-2.209.969A4.351,4.351,0,0,1,23.3,46.291Z" transform="translate(-17.785 -26.925)" fill="url(#linear-gradient)"/>
            <path id="Path_70341_-_Outline" data-name="Path 70341 - Outline" d="M23.3,46.541h0a4.642,4.642,0,0,1-2.868-1.011,5.056,5.056,0,0,1-1.909-3.575c-.3-3.863,4.215-5.827,4.407-5.908a.636.636,0,0,1,.5,1.171c-.038.016-3.862,1.7-3.637,4.64a3.776,3.776,0,0,0,1.427,2.671,3.326,3.326,0,0,0,2.625.693,3.886,3.886,0,0,0,1.277-.46,7.282,7.282,0,0,1-.805-2.256,4.965,4.965,0,0,1,.761-3.7.636.636,0,1,1,1.058.708c-1.591,2.376.281,4.948.361,5.057a.636.636,0,0,1-.128.89,5.323,5.323,0,0,1-2.316,1.015A4.619,4.619,0,0,1,23.3,46.541ZM23.177,36.5a.135.135,0,0,0-.053.011c-.179.076-4.373,1.9-4.1,5.41a4.556,4.556,0,0,0,1.721,3.221,4.059,4.059,0,0,0,3.225.847,4.822,4.822,0,0,0,2.1-.921.137.137,0,0,0,.055-.091.135.135,0,0,0-.026-.1c-.09-.121-2.16-2.969-.376-5.634a.136.136,0,0,0-.038-.189.14.14,0,0,0-.189.037c-.507.757-1.5,2.821.181,5.634l.123.206-.2.132a4.39,4.39,0,0,1-1.669.658,3.826,3.826,0,0,1-3.019-.8A4.276,4.276,0,0,1,19.291,41.9a4.585,4.585,0,0,1,1.876-3.822,9.118,9.118,0,0,1,2.063-1.317.136.136,0,0,0-.053-.262Z" transform="translate(-17.785 -26.925)" fill="url(#linear-gradient)"/>
            <path id="Path_70342" data-name="Path 70342" d="M44.159,33.284a8.352,8.352,0,0,1-4.274-1.412.386.386,0,1,1,.4-.659c1.962,1.2,3.7,1.569,5.151,1.1a4.729,4.729,0,0,0,2.654-2.409c.888-2.334-1.159-3.94-2.049-4.507-1.165,2.8-4.724,3.1-4.882,3.116a.386.386,0,1,1-.059-.77c.036,0,3.568-.314,4.364-3.022a.386.386,0,0,1,.546-.236c1.44.734,3.879,2.867,2.8,5.707a5.437,5.437,0,0,1-3.125,2.853,4.958,4.958,0,0,1-1.526.235Z" transform="translate(-30.634 -19.684)" fill="url(#linear-gradient)"/>
            <path id="Path_70342_-_Outline" data-name="Path 70342 - Outline" d="M44.177,33.534h-.019a8.611,8.611,0,0,1-4.4-1.447A.636.636,0,1,1,40.419,31a7.387,7.387,0,0,0,3.74,1.26,3.946,3.946,0,0,0,1.2-.181,4.452,4.452,0,0,0,2.5-2.271c.742-1.966-.79-3.391-1.714-4.037-1.335,2.689-4.817,2.982-4.969,2.994l-.049,0a.639.639,0,0,1-.634-.587.636.636,0,0,1,.585-.683c.033,0,3.4-.31,4.144-2.843a.634.634,0,0,1,.358-.4.643.643,0,0,1,.541.017c1.509.769,4.061,3.017,2.919,6.019l-.007.016a5.718,5.718,0,0,1-3.269,2.984l-.007,0A5.2,5.2,0,0,1,44.177,33.534Zm-4.1-2.133a.136.136,0,0,0-.068.254l.005,0a8.131,8.131,0,0,0,4.144,1.375h.018a4.7,4.7,0,0,0,1.428-.222A5.215,5.215,0,0,0,48.579,30.1c1.008-2.667-1.313-4.69-2.682-5.388a.138.138,0,0,0-.116,0,.136.136,0,0,0-.077.087,4.27,4.27,0,0,1-2.61,2.686A7.216,7.216,0,0,1,41.12,28a.136.136,0,0,0-.125.146.137.137,0,0,0,.146.125c.145-.011,3.561-.3,4.671-2.963l.114-.274.251.16a6.064,6.064,0,0,1,1.765,1.662A3.283,3.283,0,0,1,48.326,30l-.008.019a4.95,4.95,0,0,1-2.794,2.536l-.009,0a4.443,4.443,0,0,1-1.355.206,7.868,7.868,0,0,1-4-1.335l-.005,0A.136.136,0,0,0,40.078,31.4Z" transform="translate(-30.634 -19.684)" fill="url(#linear-gradient)"/>
            <path id="Path_70339" data-name="Path 70339" d="M32.254,35.086a3.065,3.065,0,1,1,3.065-3.065,3.065,3.065,0,0,1-3.065,3.065Zm0-5.357a2.292,2.292,0,1,0,2.292,2.292A2.292,2.292,0,0,0,32.254,29.73Z" transform="translate(-24.188 -22.452)" fill="url(#linear-gradient)"/>
            <path id="Path_70339_-_Outline" data-name="Path 70339 - Outline" d="M32.254,35.336h0a3.315,3.315,0,1,1,3.315-3.315A3.318,3.318,0,0,1,32.254,35.336Zm0-6.129a2.815,2.815,0,1,0,2.815,2.814A2.818,2.818,0,0,0,32.254,29.207Zm0,5.357a2.542,2.542,0,1,1,0-5.085h0a2.542,2.542,0,0,1,0,5.085Zm0-4.585A2.042,2.042,0,1,0,34.3,32.022a2.029,2.029,0,0,0-2.042-2.042Z" transform="translate(-24.188 -22.452)" fill="url(#linear-gradient)"/>
          </g>
        </g>
      </g>
    </g>
  </g>
</svg>