<svg xmlns="http://www.w3.org/2000/svg" width="49.027" height="48.91" viewBox="0 0 49.027 48.91">
  <g id="b580d5abe70cf174c0b5200bda14b4f1" transform="translate(0.198 0.125)">
    <path id="Path_93962" data-name="Path 93962" d="M156.52,144.593c-.452-1.255-.975-1.166-1.323-1.179s-.653-.007-1.123,0a2.238,2.238,0,0,0-1.618.711,7.01,7.01,0,0,0-2.274,5.069c-.11,3.038,1.921,6.057,2.2,6.48s3.877,7.01,9.85,9.719,6,1.883,7.1,1.822,3.583-1.358,4.132-2.779a5.322,5.322,0,0,0,.454-2.922c-.14-.263-.531-.434-1.117-.765s-3.463-1.94-4-2.167-.933-.345-1.354.258-1.614,1.948-1.975,2.347-.713.436-1.3.1a16.238,16.238,0,0,1-4.685-3.25,18.639,18.639,0,0,1-3.163-4.4.916.916,0,0,1,.308-1.249c.278-.267.622-.7.934-1.047a4.256,4.256,0,0,0,.633-1.007,1.173,1.173,0,0,0-.011-1.083C158.054,148.933,156.972,145.848,156.52,144.593Z" transform="translate(-137.036 -131.571)" fill="#08558c" stroke="#fff" stroke-width="0.25" fill-rule="evenodd"/>
    <path id="Path_93963" data-name="Path 93963" d="M56.794,35.471A20.415,20.415,0,0,1,71.251,41.4a20.037,20.037,0,0,1,0,28.547A20.416,20.416,0,0,1,56.794,75.87a20.636,20.636,0,0,1-9.883-2.516L45.6,72.638l-1.42.45L37.5,75.205l2.106-6.2.522-1.535-.845-1.384A20.032,20.032,0,0,1,42.338,41.4a20.414,20.414,0,0,1,14.456-5.925m0-3.471A23.791,23.791,0,0,0,32.884,55.67a23.385,23.385,0,0,0,3.431,12.222L32,80.591l13.238-4.2A23.746,23.746,0,1,0,56.794,32Z" transform="translate(-32 -32)" fill="#08558c" stroke="#fff" stroke-width="0.25"/>
  </g>
</svg>
