<svg xmlns="http://www.w3.org/2000/svg" xmlns:xlink="http://www.w3.org/1999/xlink" width="90.063" height="71.499" viewBox="0 0 90.063 71.499">
  <defs>
    <linearGradient id="linear-gradient" x1="0.252" x2="0.908" y2="1.256" gradientUnits="objectBoundingBox">
      <stop offset="0" stop-color="#ffb645"/>
      <stop offset="1" stop-color="#ffb645"/>
    </linearGradient>
  </defs>
  <g id="Group_232" data-name="Group 232" transform="translate(0 0)">
    <path id="Path_646" data-name="Path 646" d="M170.839,86.409a.9.9,0,0,0,.062-.111c.009-.017.02-.034.027-.052a.9.9,0,0,0,.048-.158c0-.013,0-.026.007-.04h0a.89.89,0,0,0,.012-.155c0-.017,0-.034-.006-.051a.9.9,0,0,0-.017-.126c-.005-.022-.014-.043-.02-.064h0a.833.833,0,0,0-.038-.1c-.01-.023-.024-.045-.037-.067a1.072,1.072,0,0,0-.058-.092c-.015-.021-.031-.04-.048-.06h0a1.1,1.1,0,0,0-.084-.086c-.011-.01-.018-.022-.03-.031s-.018-.011-.025-.017h0a1.075,1.075,0,0,0-.105-.072c-.022-.013-.042-.028-.065-.04h0a1.145,1.145,0,0,0-.11-.048c-.026-.01-.051-.022-.078-.031l-.011,0-28.552-8.784v-31.5a1.038,1.038,0,0,0-1.1-.965H111.322a1.038,1.038,0,0,0-1.1.965v31.5L81.67,85l-.011,0c-.027.009-.052.021-.078.031s-.074.03-.11.048-.043.026-.065.039h0a.986.986,0,0,0-.106.072c-.009.006-.018.011-.026.017s-.02.021-.03.031h0a.93.93,0,0,0-.084.086c-.017.02-.033.04-.048.06h0a.861.861,0,0,0-.058.091c-.012.022-.026.044-.037.067a1.007,1.007,0,0,0-.039.1c-.007.021-.016.043-.02.064a.917.917,0,0,0-.018.126c0,.016-.005.033-.006.051a.881.881,0,0,0,.013.155c0,.013,0,.026.007.04a.925.925,0,0,0,.048.158.575.575,0,0,0,.027.052,1.006,1.006,0,0,0,.063.111c.012.018.028.034.042.052a1,1,0,0,0,.084.095c.007.007.012.014.018.021A27.666,27.666,0,0,0,98.578,93.6a1.2,1.2,0,0,0,.481.018c.3.01.607.016.911.016h51.99a27.814,27.814,0,0,0,18.735-7.058c.007-.006.012-.014.018-.021a1,1,0,0,0,.084-.095c.014-.018.029-.036.043-.053Zm-60.052.468V91.7h-4.313V86.877Zm2.2,0H117.3V91.7h-4.313Zm6.51,0h4.313V91.7h-4.312Zm6.51,0h4.313V91.7H126Zm6.51,0h4.313V91.7h-4.313Zm6.51,0h4.313V91.7h-4.312Zm6.51,0h4.313V91.7h-4.312Zm6.51,0h15.073A25.854,25.854,0,0,1,152.043,91.7Zm-12.53-41.194v5.793h-4.4a.974.974,0,1,0,0,1.931h4.4V75.934H112.419V53.407h18.12a.974.974,0,1,0,0-1.931h-18.12V45.683Zm-28,32.183h28.915l23.014,7.08H88.5Zm-13.74,9.011v4.734h0a25.662,25.662,0,0,1-12.951-4.734Zm2.2,4.827V86.877h4.313V91.7H99.964Z" transform="translate(-80.934 -43.752)" fill="url(#linear-gradient)"/>
    <g id="Waves" transform="translate(29.209 52.467)">
      <path id="Path_647" data-name="Path 647" d="M247.19,429.758a1.31,1.31,0,0,0,2.611,0,3.172,3.172,0,0,1,1.377-2.5,5.153,5.153,0,0,0,0-8.308,2.952,2.952,0,0,1,0-4.993h0a1.127,1.127,0,0,0-.028-1.7,1.389,1.389,0,0,0-1.855.043,5.154,5.154,0,0,0,0,8.309,2.951,2.951,0,0,1,0,4.992,5.368,5.368,0,0,0-2.1,4.154Z" transform="translate(-247.19 -411.926)" fill="url(#linear-gradient)"/>
      <path id="Path_648" data-name="Path 648" d="M296.41,429.758a1.31,1.31,0,0,0,2.611,0,3.172,3.172,0,0,1,1.377-2.5,5.153,5.153,0,0,0,0-8.308,2.952,2.952,0,0,1,0-4.993h0a1.128,1.128,0,0,0-.028-1.7,1.389,1.389,0,0,0-1.855.043,5.154,5.154,0,0,0,0,8.309,2.951,2.951,0,0,1,0,4.992A5.368,5.368,0,0,0,296.41,429.758Z" transform="translate(-289.06 -411.926)" fill="url(#linear-gradient)"/>
      <path id="Path_649" data-name="Path 649" d="M345.62,430.364a1.311,1.311,0,0,0,2.611,0,3.156,3.156,0,0,1,1.377-2.487,5.121,5.121,0,0,0,0-8.276,3.158,3.158,0,0,1-1.377-2.487,2.957,2.957,0,0,1,1.225-2.341h0a1.122,1.122,0,0,0-.036-1.694,1.393,1.393,0,0,0-1.854.047,5.156,5.156,0,0,0-1.946,3.986,5.342,5.342,0,0,0,2.1,4.139,2.933,2.933,0,0,1,0,4.972,5.339,5.339,0,0,0-2.1,4.138Z" transform="translate(-330.921 -412.523)" fill="url(#linear-gradient)"/>
      <path id="Path_650" data-name="Path 650" d="M394.84,429.758a1.31,1.31,0,0,0,2.611,0,3.172,3.172,0,0,1,1.377-2.5,5.153,5.153,0,0,0,0-8.308,2.952,2.952,0,0,1,0-4.993h0a1.127,1.127,0,0,0-.028-1.7,1.389,1.389,0,0,0-1.855.043,5.154,5.154,0,0,0,0,8.309,2.951,2.951,0,0,1,0,4.992A5.368,5.368,0,0,0,394.84,429.758Z" transform="translate(-372.791 -411.926)" fill="url(#linear-gradient)"/>
      <path id="Path_651" data-name="Path 651" d="M444.06,429.758a1.31,1.31,0,0,0,2.611,0,3.172,3.172,0,0,1,1.377-2.5,5.153,5.153,0,0,0,0-8.308,2.952,2.952,0,0,1,0-4.993h0a1.127,1.127,0,0,0-.028-1.7,1.389,1.389,0,0,0-1.855.043,5.154,5.154,0,0,0,0,8.309,2.951,2.951,0,0,1,0,4.992A5.368,5.368,0,0,0,444.06,429.758Z" transform="translate(-414.662 -411.926)" fill="url(#linear-gradient)"/>
    </g>
  </g>
</svg>
