<svg id="cc32b826af4d464125cead9bea86dfb7" xmlns="http://www.w3.org/2000/svg" width="64" height="64" viewBox="0 0 64 64">
  <path id="Path_93721" data-name="Path 93721" d="M0,0H64V64H0Z" fill="none"/>
  <path id="Path_93722" data-name="Path 93722" d="M41.653,27.553a18.385,18.385,0,0,0,.161-2.281,18.386,18.386,0,0,0-.161-2.281l4.843-3.84a1.185,1.185,0,0,0,.275-1.489L42.18,9.61a1.146,1.146,0,0,0-1.4-.512l-5.715,2.327a16.714,16.714,0,0,0-3.879-2.281l-.872-6.167A1.124,1.124,0,0,0,29.19,2H20.01a1.124,1.124,0,0,0-1.125.977l-.872,6.167a17.576,17.576,0,0,0-3.879,2.281L8.42,9.1a1.112,1.112,0,0,0-1.4.512L2.43,17.662a1.158,1.158,0,0,0,.275,1.489l4.843,3.84a18.711,18.711,0,0,0-.161,2.281,18.71,18.71,0,0,0,.161,2.281l-4.843,3.84a1.185,1.185,0,0,0-.275,1.489l4.59,8.052a1.146,1.146,0,0,0,1.4.512l5.715-2.327A16.714,16.714,0,0,0,18.013,41.4l.872,6.167a1.124,1.124,0,0,0,1.125.977h9.18a1.124,1.124,0,0,0,1.125-.977l.872-6.167a17.576,17.576,0,0,0,3.879-2.281l5.715,2.327a1.112,1.112,0,0,0,1.4-.512l4.59-8.052a1.185,1.185,0,0,0-.275-1.489ZM24.6,33.418a8.146,8.146,0,1,1,8.033-8.145A8.1,8.1,0,0,1,24.6,33.418Z" transform="translate(9.062 5.133)" fill="none" stroke="#08558c" stroke-width="2"/>
</svg>
