<svg xmlns="http://www.w3.org/2000/svg" width="43.612" height="47.899" viewBox="0 0 43.612 47.899">
  <g id="cdaf46d303ad5f25a9d0431f84c8ac47" transform="translate(0.126 0.176)">
    <path id="Path_93954" data-name="Path 93954" d="M51.083,27.907H9.3L30.192,7Zm0,0L30.192,41,9.3,27.907Z" transform="translate(-8.516 -6.216)" fill="#fff" stroke="#08558c" stroke-linecap="round" stroke-linejoin="round" stroke-miterlimit="10" stroke-width="0.25"/>
    <path id="Path_93954_-_Outline" data-name="Path 93954 - Outline" d="M30.143,40.665a.771.771,0,0,1-.4-.112L8.835,27.857l-.01-.006h0a.762.762,0,0,1-.234-.232h0a.759.759,0,0,1-.11-.288h0a.752.752,0,0,1,.014-.3h0q.009-.036.022-.072h0A.758.758,0,0,1,8.7,26.66L29.607,6.384a.771.771,0,0,1,1.072,0L51.585,26.66a.758.758,0,0,1,.188.287h0q.013.035.022.072h0a.752.752,0,0,1,.014.3h0a.759.759,0,0,1-.11.288h0a.762.762,0,0,1-.234.232h0l-.01.006-20.908,12.7A.771.771,0,0,1,30.143,40.665Zm-18.188-12.7L30.143,39.013,48.331,27.968Zm-.84-1.521H49.171L30.143,7.992Z" transform="translate(-8.467 -6.167)" fill="#08558c" stroke="#08558c" stroke-linecap="round" stroke-width="0.25"/>
    <path id="Path_93955" data-name="Path 93955" d="M16.2,16.6H44.987V43.691H16.2Z" transform="translate(-8.918 -6.775)" fill="#fff" stroke="#08558c" stroke-linecap="round" stroke-linejoin="round" stroke-miterlimit="10" stroke-width="0.25"/>
    <path id="Path_93955_-_Outline" data-name="Path 93955 - Outline" d="M16.127,15.767H44.963a.758.758,0,0,1,.76.756V43.67a.758.758,0,0,1-.76.756H16.127a.758.758,0,0,1-.76-.756V16.523A.758.758,0,0,1,16.127,15.767ZM44.2,17.279H16.887V42.915H44.2Z" transform="translate(-8.869 -6.727)" fill="#08558c" stroke="#08558c" stroke-linecap="round" stroke-width="0.25"/>
    <path id="Path_93956" data-name="Path 93956" d="M53.378,29.2V55.381L32,42.291Z" transform="translate(-10.811 -8.577)" fill="#fff" stroke="#08558c" stroke-linecap="round" stroke-linejoin="round" stroke-miterlimit="10" stroke-width="0.25"/>
    <path id="Path_93956_-_Outline" data-name="Path 93956 - Outline" d="M53.33,28.368a.784.784,0,0,1,.784.784V55.333A.784.784,0,0,1,52.92,56L31.542,42.911a.784.784,0,0,1,0-1.337L52.92,28.483A.784.784,0,0,1,53.33,28.368Zm-.784,25.566V30.551L33.453,42.242Z" transform="translate(-10.762 -8.528)" fill="#08558c" stroke="#08558c" stroke-linecap="round" stroke-width="0.25"/>
    <path id="Path_93957" data-name="Path 93957" d="M51.083,55.381H9.3V29.2Z" transform="translate(-8.516 -8.577)" fill="#fff" stroke="#08558c" stroke-linecap="round" stroke-linejoin="round" stroke-miterlimit="10" stroke-width="0.25"/>
    <path id="Path_93957_-_Outline" data-name="Path 93957 - Outline" d="M51.052,56.117H9.234a.776.776,0,0,1-.767-.784V29.152a.787.787,0,0,1,.392-.684.752.752,0,0,1,.775.015L51.452,54.664a.792.792,0,0,1,.338.881A.77.77,0,0,1,51.052,56.117ZM10,54.549h38.33L10,30.551Z" transform="translate(-8.467 -8.528)" fill="#08558c" stroke="#08558c" stroke-linecap="round" stroke-width="0.25"/>
    <path id="Path_93958" data-name="Path 93958" d="M37.532,24.83H24.065a.565.565,0,1,1,0-1.13H37.532a.565.565,0,0,1,0,1.13Zm0,5.368H24.065a.565.565,0,1,1,0-1.13H37.532a.565.565,0,0,1,0,1.13Zm0,5.18H24.065a.565.565,0,1,1,0-1.13H37.532a.565.565,0,1,1,0,1.13Z" transform="translate(-9.806 -9.648)" fill="#08558c" stroke="#08558c" stroke-width="0.25"/>
  </g>
</svg>
