<svg xmlns="http://www.w3.org/2000/svg" width="50" height="51.419" viewBox="0 0 50 51.419">
  <path id="eac8b176fb572d0efa86706e99a55f6c" d="M91.9,144h32.123a1.9,1.9,0,0,1,1.9,1.9V168.76a1.9,1.9,0,0,1-1.9,1.9H99.8L90,179.787V145.9A1.9,1.9,0,0,1,91.9,144ZM138,180.536V192l-9.4-9.425H101.438a2.051,2.051,0,0,1-2.041-2.039v-5.254h28.814a2.051,2.051,0,0,0,2.041-2.039V153.932h5.707A2.051,2.051,0,0,1,138,155.971Z" transform="translate(-89 -143)" fill="none" stroke="#08558c" stroke-width="2" fill-rule="evenodd"/>
</svg>
