<svg xmlns="http://www.w3.org/2000/svg" xmlns:xlink="http://www.w3.org/1999/xlink" width="83.67" height="66" viewBox="0 0 83.67 66">
  <defs>
    <linearGradient id="linear-gradient" x1="0.5" x2="0.902" y2="1" gradientUnits="objectBoundingBox">
      <stop offset="0" stop-color="#ffb645"/>
      <stop offset="1" stop-color="#ffb645"/>
    </linearGradient>
  </defs>
  <path id="Subtraction_3" data-name="Subtraction 3" d="M65.448,66a11.343,11.343,0,0,1-6.479-2.021L51.809,59.02l-.178.159a10.53,10.53,0,0,1-7.077,2.743H39.117a10.532,10.532,0,0,1-5.283-1.428l-.087-.053a8.11,8.11,0,0,1-2.549-2.11l-.01-.012a10.651,10.651,0,0,1-2.3-4.327l-.058-.225H3.943a3.942,3.942,0,0,1-2.786-6.731l1.708-1.707a10.829,10.829,0,0,1,7.709-3.193h3.778a115.631,115.631,0,0,1,15.769,1.1l.177.025.105-.142a9.077,9.077,0,0,1,7.355-3.7h.3V17.068h-.3a1.057,1.057,0,0,1-.9-.5L32.225,9.154a15.268,15.268,0,0,1-2.321-8.1A1.059,1.059,0,0,1,30.962,0H52.71a1.06,1.06,0,0,1,1.059,1.058,15.262,15.262,0,0,1-2.323,8.1L46.811,16.57a1.054,1.054,0,0,1-.9.5h-.3v22.35h.3a9.3,9.3,0,0,1,5.249,1.669l.2.136L67.179,26.984A9.821,9.821,0,0,1,75.344,24.6l5.023.837a3.952,3.952,0,0,1,1.406,7.274L55.127,48.93v1.7L73.168,57.85A3.734,3.734,0,0,1,72.4,65l-5.078.845A11.164,11.164,0,0,1,65.448,66ZM55.013,52.867l-.066.364a10.415,10.415,0,0,1-1.575,3.937l-.162.246,6.965,4.823a9.37,9.37,0,0,0,5.288,1.646,9.21,9.21,0,0,0,1.5-.124l5.08-.846a1.618,1.618,0,0,0,.335-3.1l-17.37-6.946ZM41.835,49.689c-6.321,0-10.124,1.032-11.035,1.682l-.131.094.005.161a8.461,8.461,0,0,0,8.443,8.181h5.437A8.458,8.458,0,0,0,53,51.625L53,51.465l-.131-.094C51.958,50.721,48.156,49.689,41.835,49.689ZM10.573,44.252a8.722,8.722,0,0,0-6.212,2.574l-1.71,1.708A1.825,1.825,0,0,0,3.943,51.65h24.6V48.631a9.13,9.13,0,0,1,.525-3.031l.122-.351-.368-.048a113.535,113.535,0,0,0-14.47-.948Zm27.184-2.718a7.1,7.1,0,0,0-7.1,7.1v.46l.406-.153c3.274-1.232,8.621-1.365,10.768-1.365.406,0,1.242.006,2.285.047l.121,0,5.511-4.96-.365-.2a7.128,7.128,0,0,0-3.474-.925ZM73.748,26.585a7.692,7.692,0,0,0-5.154,1.97L47.181,47.827l.659.079a25.134,25.134,0,0,1,3.622.668l.125.034L80.673,30.9a1.849,1.849,0,0,0,.882-1.568,1.83,1.83,0,0,0-1.535-1.811L75,26.687A7.591,7.591,0,0,0,73.748,26.585ZM40.174,17.068v22.35H43.5V17.068ZM32.058,2.116h0l.035.333A13.223,13.223,0,0,0,34.02,8.034l4.324,6.918h6.982l4.327-6.92a13.214,13.214,0,0,0,1.927-5.583l.034-.333Z" fill="url(#linear-gradient)"/>
</svg>
