<svg viewBox="0 0 14.769 25.392" height="25.392" width="14.769" xmlns="http://www.w3.org/2000/svg">
  <path stroke-width="1" stroke-miterlimit="10" stroke="rgba(0,0,0,0)" fill="#fff" transform="translate(-22.2 -1.1)" d="M33.348,7.339h2.014a1.117,1.117,0,0,0,1.108-1.108V2.708A1.117,1.117,0,0,0,35.362,1.6h-3c-3.7,0-6.167,2.542-6.167,6.318V9.907H23.808A1.117,1.117,0,0,0,22.7,11.014v3.8a1.117,1.117,0,0,0,1.108,1.108H26.2v8.961a1.117,1.117,0,0,0,1.108,1.108h3.927a1.117,1.117,0,0,0,1.108-1.108V15.923h2.895a1.117,1.117,0,0,0,1.108-1.108v-3.8a1.117,1.117,0,0,0-1.108-1.108H32.341V8.321C32.341,7.541,32.366,7.339,33.348,7.339Zm1.712,3.851v3.474H31.082V24.733H27.458V14.664h-3.5V11.191h3.5V7.918c0-3.121,1.888-5.06,4.909-5.06h2.844V6.081H33.348c-2.014,0-2.265,1.133-2.265,2.24v2.844H35.06Z" id="XMLID_8_"></path>
</svg>
