<svg viewBox="0 0 25.896 25.896" height="25.896" width="25.896" xmlns="http://www.w3.org/2000/svg">
  <g transform="translate(0.15 0.15)" data-name="Group 44427" id="Group_44427">
    <g transform="translate(0 0)" data-name="Group 44428" id="Group_44428">
      <path stroke-width="0.3" stroke="#205699" fill="#fff" transform="translate(0 -0.001)" d="M18.311,25.6H7.285A7.293,7.293,0,0,1,0,18.312V7.286A7.293,7.293,0,0,1,7.285,0H18.311A7.293,7.293,0,0,1,25.6,7.286V18.312A7.293,7.293,0,0,1,18.311,25.6M7.285,2.195A5.1,5.1,0,0,0,2.194,7.286V18.312A5.1,5.1,0,0,0,7.285,23.4H18.311A5.1,5.1,0,0,0,23.4,18.312V7.286a5.1,5.1,0,0,0-5.091-5.091Z" data-name="Path 70252" id="Path_70252"></path>
      <path stroke-width="0.3" stroke="#205699" fill="#fff" transform="translate(-32.264 -32.264)" d="M45.062,51.616a6.554,6.554,0,1,1,6.554-6.554,6.561,6.561,0,0,1-6.554,6.554m0-10.914a4.36,4.36,0,1,0,4.36,4.36,4.365,4.365,0,0,0-4.36-4.36" data-name="Path 70253" id="Path_70253"></path>
      <path stroke-width="0.3" stroke="#205699" fill="#fff" transform="translate(-93.302 -22.188)" d="M114.51,28.057a1.575,1.575,0,1,1-1.575-1.575,1.575,1.575,0,0,1,1.575,1.575" data-name="Path 70254" id="Path_70254"></path>
    </g>
  </g>
</svg>
