<svg viewBox="0 0 31.652 24.392" height="24.392" width="31.652" xmlns="http://www.w3.org/2000/svg" id="Youtube">
  <path fill="#fff" transform="translate(2.807 -1.16)" d="M10.3,7.89a.99.99,0,0,0-1.5.849v9.232a.991.991,0,0,0,1.5.851l7.74-4.609a.991.991,0,0,0,0-1.7Zm.483,8.342v-5.75L15.6,13.36Z" data-name="Path 705" id="Path_705"></path>
  <path fill="#fff" transform="translate(0 -2.753)" d="M26.25,3.436a79.832,79.832,0,0,0-20.848,0A5.767,5.767,0,0,0,.59,8.231a38.559,38.559,0,0,0,0,13.434A5.765,5.765,0,0,0,5.4,26.46a73.667,73.667,0,0,0,10.439.684,73.22,73.22,0,0,0,10.411-.683,5.77,5.77,0,0,0,4.811-4.8,38.574,38.574,0,0,0,0-13.436A5.767,5.767,0,0,0,26.25,3.436Zm2.862,17.9A3.8,3.8,0,0,1,25.96,24.5a77.64,77.64,0,0,1-20.268,0,3.8,3.8,0,0,1-3.153-3.168,36.218,36.218,0,0,1,0-12.775A3.8,3.8,0,0,1,5.693,5.392a71.645,71.645,0,0,1,10.131-.663,71.656,71.656,0,0,1,10.134.663A3.8,3.8,0,0,1,29.112,8.56a36.225,36.225,0,0,1,0,12.777Z" data-name="Path 706" id="Path_706"></path>
</svg>
