<svg xmlns="http://www.w3.org/2000/svg" xmlns:xlink="http://www.w3.org/1999/xlink" width="42.464" height="70.002" viewBox="0 0 42.464 70.002">
  <defs>
    <linearGradient id="linear-gradient" x1="-0.124" x2="1" y2="0.947" gradientUnits="objectBoundingBox">
      <stop offset="0" stop-color="#ffb645"/>
      <stop offset="1" stop-color="#ffb645"/>
    </linearGradient>
  </defs>
  <path id="Path_70443" data-name="Path 70443" d="M37.127,0H5.337A5.344,5.344,0,0,0,0,5.337V53.366A5.344,5.344,0,0,0,5.337,58.7H9.991v2.925a3.165,3.165,0,0,0,3.161,3.161h1.214v4.229A.986.986,0,0,0,15.35,70h3.1a.986.986,0,0,0,.984-.984V64.789h3.6v4.227a.986.986,0,0,0,.984.984h3.1a.986.986,0,0,0,.984-.984V64.787h1.2a3.165,3.165,0,0,0,3.161-3.161V58.7h4.664a5.344,5.344,0,0,0,5.337-5.337V5.338A5.344,5.344,0,0,0,37.127,0m-11,68.03H24.989V64.785h1.134Zm-8.669-3.245V68.03H16.319V64.785ZM30.5,61.624A1.194,1.194,0,0,1,29.3,62.817H13.141a1.194,1.194,0,0,1-1.193-1.193V58.7H30.493Zm-4.9-34.574a4.37,4.37,0,1,1-8.739,0V11.317H25.6Zm-4.287,6.418a6.339,6.339,0,0,0,6.259-6.418V11.317H40.5V47.4H1.957V11.317H14.886l0,15.733q0,.08,0,.159a6.339,6.339,0,0,0,6.418,6.259m19.187,15.9,0,4a3.372,3.372,0,0,1-3.369,3.369H5.323a3.372,3.372,0,0,1-3.369-3.369v-4Zm0-44.027v4H1.959v-4A3.372,3.372,0,0,1,5.328,1.969h31.8A3.372,3.372,0,0,1,40.5,5.338" fill="url(#linear-gradient)"/>
</svg>
