<svg xmlns="http://www.w3.org/2000/svg" width="22.262" height="22.687" viewBox="0 0 22.262 22.687">
  <g id="Group_44420" data-name="Group 44420" transform="translate(-862 -7690)">
    <path id="noun-call-5183933" d="M92.958,25.795A3.614,3.614,0,0,1,90.4,24.735L87.881,22.22a3.623,3.623,0,0,1-.284-4.8,1.114,1.114,0,0,1,1.748.012l.873,1.146h0a.894.894,0,0,1-.079,1.169.888.888,0,0,0-.377.641.631.631,0,0,0,.186.451l1.828,1.828h0a.641.641,0,0,0,.9,0l.188-.188a.895.895,0,0,1,1.168-.079l1.146.873h0a1.115,1.115,0,0,1,.013,1.748,3.612,3.612,0,0,1-2.239.775Zm-4.492-8.5a.808.808,0,0,0-.639.309,3.33,3.33,0,0,0,.261,4.412L90.6,24.528a3.331,3.331,0,0,0,4.412.261.821.821,0,0,0-.01-1.286l-1.146-.873a.6.6,0,0,0-.785.053.991.991,0,0,1-1.506.191l-1.828-1.828.068.085a1.22,1.22,0,0,1-.338-.744.935.935,0,0,1,.273-.658l.188-.188a.6.6,0,0,0,.052-.785l-.873-1.146a.812.812,0,0,0-.647-.318Z" transform="translate(781.818 7680.417)" fill="#1e4b81"/>
    <path id="noun-call-5183933_-_Outline" data-name="noun-call-5183933 - Outline" d="M92.958,26.195h0a4.014,4.014,0,0,1-2.839-1.177L87.6,22.5a4.023,4.023,0,0,1-.316-5.33,1.509,1.509,0,0,1,1.183-.57h.011a1.506,1.506,0,0,1,1.184.583l.876,1.15a1.294,1.294,0,0,1-.113,1.693l-.026.026-.03.021a.488.488,0,0,0-.2.332.232.232,0,0,0,.068.148l1.829,1.829a.238.238,0,0,0,.168.068.241.241,0,0,0,.171-.071l.188-.188a1.295,1.295,0,0,1,1.692-.115l1.148.874a1.515,1.515,0,0,1,.021,2.378,4.032,4.032,0,0,1-2.417.863h-.072Zm-4.5-8.5a.406.406,0,0,0-.321.156,2.93,2.93,0,0,0,.23,3.882l2.515,2.515a2.931,2.931,0,0,0,3.882.23.421.421,0,0,0-.008-.656l-1.142-.87a.2.2,0,0,0-.247.006,1.517,1.517,0,0,1-1.172.589,1.269,1.269,0,0,1-.914-.389L89.534,21.4l-.009.008a1.609,1.609,0,0,1-.453-1.026,1.327,1.327,0,0,1,.389-.939l.189-.189A.2.2,0,0,0,89.666,19l-.872-1.145a.414.414,0,0,0-.326-.161Z" transform="translate(781.818 7680.417)" fill="#fff"/>
    <g id="noun-whatsapp-4795784" transform="translate(862 7690)">
      <path id="Path_70250" data-name="Path 70250" d="M142.729,58.566a11.155,11.155,0,1,0-20.13,8.918c-.212,1.529-.382,3.058-.595,4.587-.085.552.595.934,1.062.807,1.486-.425,3.015-.807,4.5-1.232a11.163,11.163,0,0,0,15.161-13.08Zm-2.973,8.2a9.513,9.513,0,0,1-11.678,3.27h-.042a1.021,1.021,0,0,0-.637-.085c-1.189.34-2.378.637-3.567.977.127-1.019.255-2,.382-3.015a1.814,1.814,0,0,0-.042-1.062c-.127-.212-.3-.425-.425-.679a11.213,11.213,0,0,1-.764-1.614,9.494,9.494,0,1,1,16.775,2.209Z" transform="translate(-120.819 -50.216)" fill="#fff"/>
    </g>
  </g>
</svg>
