<svg id="Group_44455" data-name="Group 44455" xmlns="http://www.w3.org/2000/svg" width="26" height="26.001" viewBox="0 0 26 26.001">
  <g id="Group_44456" data-name="Group 44456" transform="translate(0.003 0.001)">
    <path id="Path_70288" data-name="Path 70288" d="M51.851,64.849A12.941,12.941,0,0,1,45.367,63.1L40.3,64.849l1.04-5.364a12.854,12.854,0,0,1-2.492-7.637,13,13,0,1,1,13,13M45.6,60.978l.392.245a11.081,11.081,0,1,0-2.857-2.572l.272.348-.569,2.931Z" transform="translate(-38.851 -38.849)"/>
    <path id="Path_70289" data-name="Path 70289" d="M73.285,77.219s.763-1.333,1.385-1.409,1.423-.076,1.638.33,1.181,2.769,1.181,2.769a.927.927,0,0,1-.088.8,7.919,7.919,0,0,1-.825.965.706.706,0,0,0,0,.838A15.315,15.315,0,0,0,78.4,83.754,9.978,9.978,0,0,0,81.374,85.5a.6.6,0,0,0,.458-.14c.177-.178,1.143-1.384,1.143-1.384a.677.677,0,0,1,.825-.165c.514.235,2.743,1.346,2.743,1.346a.482.482,0,0,1,.261.489,3.142,3.142,0,0,1-.485,1.682,3.88,3.88,0,0,1-2.709,1.33,11.955,11.955,0,0,1-6.654-2.98c-1.816-1.816-3.428-3.658-3.809-5.334s-.33-2.434.139-3.124" transform="translate(-66.848 -69.214)"/>
  </g>
</svg>
