<svg xmlns="http://www.w3.org/2000/svg" xmlns:xlink="http://www.w3.org/1999/xlink" width="77" height="56.516" viewBox="0 0 77 56.516">
  <defs>
    <linearGradient id="linear-gradient" x1="0.237" y1="0.199" x2="0.881" y2="0.873" gradientUnits="objectBoundingBox">
      <stop offset="0" stop-color="#ffb645"/>
      <stop offset="1" stop-color="#ffb645"/>
    </linearGradient>
    <clipPath id="clip-path">
      <rect id="Rectangle_367" data-name="Rectangle 367" width="77" height="56.516" fill="#ffb645"/>
    </clipPath>
  </defs>
  <g id="Iron" clip-path="url(#clip-path)">
    <path id="Path_538" data-name="Path 538" d="M109.867,18.034a4.9,4.9,0,0,1-3.043,3.418c1.073,2.69-1.109,3.394-2.735,4.48.756,1.643,1.48,3.258,2.239,4.857a9.329,9.329,0,0,1,1.134,4.235,7.622,7.622,0,0,1-3.374,6.457,6.767,6.767,0,0,0-2.961,4.085,4.1,4.1,0,0,1-.162.5,1.146,1.146,0,0,1-1.479.8,1.159,1.159,0,0,1-.673-1.477,9.237,9.237,0,0,1,3.945-5.723,5.436,5.436,0,0,0,1.989-6.837q-2.759-6.2-5.69-12.332a5.463,5.463,0,0,0-4.7-3.186,50.893,50.893,0,0,0-25.369,4.161A62.23,62.23,0,0,0,48.285,36.743a75.319,75.319,0,0,0-7.245,9.3c-.189.285-.434.682-.7.728a1.854,1.854,0,0,1-1.282-.23.971.971,0,0,1-.1-1.418c.788-1.16,1.566-2.328,2.4-3.456A73.046,73.046,0,0,1,57.532,25.456c.159-.115.308-.244.512-.407-.415-.814-.826-1.608-1.225-2.408a3.84,3.84,0,0,1,1.806-5.5q3.506-1.8,7.023-3.579a3.841,3.841,0,0,1,5.5,1.8c.391.754.776,1.511,1.179,2.3,1.433-.4,2.839-.818,4.258-1.188a52.967,52.967,0,0,1,17.965-1.419,7.85,7.85,0,0,1,5.966,3.476c.276.394.513.546.969.334.315-.146.668-.208,1-.329a2.637,2.637,0,0,1,3.343.825,2.191,2.191,0,0,0,1.785-2.291q.018-2.781,0-5.561a2.212,2.212,0,0,0-2.355-2.351c-1.353-.011-2.707.009-4.06-.005a4.449,4.449,0,0,1-4.581-4.543c-.015-1.1-.011-2.2,0-3.307C96.62.493,97.064-.008,97.736,0s1.111.509,1.123,1.328c.016,1.077-.006,2.154.008,3.232A2.211,2.211,0,0,0,101.233,6.9c1.3.014,2.606,0,3.91,0a4.454,4.454,0,0,1,4.583,3.364,1.345,1.345,0,0,0,.141.249ZM70.214,18.5c-.443-.859-.809-1.628-1.228-2.366a1.479,1.479,0,0,0-2.057-.666q-3.8,1.887-7.558,3.848a1.443,1.443,0,0,0-.727,1.858c.374.889.852,1.735,1.3,2.625.382-.233.682-.413.978-.6.311-.195.619-.4.95-.607-.152-.308-.27-.553-.394-.8-.626-1.231-.595-1.851.116-2.225s1.267-.028,1.884,1.168c.123.237.264.465.408.717L66.1,20.284c-.135-.277-.231-.481-.331-.682s-.211-.4-.3-.6a1.135,1.135,0,0,1,.427-1.615,1.12,1.12,0,0,1,1.565.584c.241.432.457.877.717,1.378l2.038-.847m32.921,5.363,1.693-1.069c-.66-2.317-.882-2.448-2.811-1.718-.036.014-.055.071-.106.142l1.224,2.645" transform="translate(-32.867 0)" fill="#ffb645"/>
    <path id="Path_539" data-name="Path 539" d="M3.159,333.7a3.976,3.976,0,0,1-2.875-2.289,3.648,3.648,0,0,1,3.268-5.042c.25-.014.5-.007.751-.007h62.31c2.187,0,2.982.8,2.983,2.99,0,.451-.028.9,0,1.352a2.63,2.63,0,0,1-1.926,3ZM67.3,328.612H4.292a5.818,5.818,0,0,0-.751.019,1.389,1.389,0,0,0,0,2.769,4.912,4.912,0,0,0,.676.021H67.3Z" transform="translate(0 -277.18)" fill="#ffb645"/>
    <path id="Path_540" data-name="Path 540" d="M187.834,175.169q-6.577,0-13.153,0a2.676,2.676,0,0,1-2.731-1.711,2.612,2.612,0,0,1,.823-3.047,62.108,62.108,0,0,1,12.955-8.785,41.6,41.6,0,0,1,14.8-4.417,4.406,4.406,0,0,1,4.646,2.716c.7,1.6,1.374,3.22,2.036,4.84a4.521,4.521,0,0,1-.1,3.785c-.62,1.311-1.229,2.628-1.872,3.928a4.5,4.5,0,0,1-4.322,2.7q-6.539-.007-13.078,0m.127-2.255c4.284,0,8.567-.013,12.851.008a2.432,2.432,0,0,0,2.439-1.517c.589-1.27,1.282-2.5,1.77-3.806a3.207,3.207,0,0,0,.05-2.009c-.55-1.6-1.261-3.155-1.937-4.715a2.213,2.213,0,0,0-2.465-1.42,36.368,36.368,0,0,0-10.1,2.472,56.179,56.179,0,0,0-16,9.916,3.573,3.573,0,0,0-.52.752,3.1,3.1,0,0,0,.91.3c4.334.02,8.668.014,13,.013" transform="translate(-145.876 -133.498)" fill="#ffb645"/>
  </g>
</svg>
