<svg xmlns="http://www.w3.org/2000/svg" width="26.837" height="16" viewBox="0 0 26.837 16">
  <path id="Icon_awesome-arrow-right" data-name="Icon awesome-arrow-right" d="M-2.6,3.719l.813-.813a.876.876,0,0,1,1.242,0l7.123,7.119a.876.876,0,0,1,0,1.242L-.543,18.389a.876.876,0,0,1-1.242,0l-.813-.813a.88.88,0,0,1,.015-1.257l4.415-4.206H-19.121A.877.877,0,0,1-20,11.233V10.061a.877.877,0,0,1,.879-.879H1.831L-2.584,4.976A.874.874,0,0,1-2.6,3.719Z" transform="translate(20 -2.647)" fill="#201e1e"/>
</svg>
