<svg id="Group_290" data-name="Group 290" xmlns="http://www.w3.org/2000/svg" width="38.567" height="38.25" viewBox="0 0 38.567 38.25">
  <path id="Path_715" data-name="Path 715" d="M259.639,305.694l-7.862,7.862a.709.709,0,0,0,0,1.017.719.719,0,0,0,.5.215.7.7,0,0,0,.5-.215l7.862-7.862a.709.709,0,0,0,0-1.017A.692.692,0,0,0,259.639,305.694Z" transform="translate(-245.524 -282.595)" fill="#08558c"/>
  <path id="Path_716" data-name="Path 716" d="M246.393,172.863a7.412,7.412,0,0,0-8.034-1.625l-4.752-4.753,12.4-12.4a.766.766,0,0,0,.217-.48l.294-3.081a.8.8,0,0,0-.217-.619.721.721,0,0,0-.619-.217l-3.081.294a.806.806,0,0,0-.48.217l-12.4,12.4-4.4-4.4a7.408,7.408,0,0,0-9.861-9.567.784.784,0,0,0-.232,1.269l3.406,3.406-2.291,2.291L212.94,152.2a.771.771,0,0,0-.7-.217.8.8,0,0,0-.573.449,7.489,7.489,0,0,0,1.533,8.236,7.412,7.412,0,0,0,8.034,1.625l2.725,2.725-13.731,13.747a.766.766,0,0,0,0,1.1l6.161,6.161a.778.778,0,0,0,.542.232.751.751,0,0,0,.542-.232l13.762-13.762,3.065,3.065a7.429,7.429,0,0,0,9.861,9.582.784.784,0,0,0,.232-1.269l-3.406-3.406,2.291-2.291,3.406,3.406a.771.771,0,0,0,.7.217.8.8,0,0,0,.573-.449,7.518,7.518,0,0,0-1.564-8.251ZM243.049,151.5l1.873-.186-.186,1.873L232.522,165.4l-1.687-1.687Zm-26.116,32.865-5.062-5.062,13.2-13.2,5.062,5.062Zm29.955-5.016-3.065-3.065a.766.766,0,0,0-1.1,0l-3.39,3.39a.788.788,0,0,0-.232.542.726.726,0,0,0,.232.542l3.065,3.065a5.858,5.858,0,0,1-6.486-8.344.779.779,0,0,0-.139-.9L221.98,160.8a.751.751,0,0,0-.542-.232.844.844,0,0,0-.341.077,5.858,5.858,0,0,1-8.344-6.486l3.065,3.065a.766.766,0,0,0,1.1,0l3.39-3.39a.766.766,0,0,0,0-1.1l-3.065-3.065a5.858,5.858,0,0,1,6.486,8.344.779.779,0,0,0,.139.9l13.793,13.793a.772.772,0,0,0,.9.139,5.865,5.865,0,0,1,6.765,1.1,6.022,6.022,0,0,1,1.564,5.4Z" transform="translate(-209.998 -148.004)" fill="#08558c"/>
</svg>
