<svg xmlns="http://www.w3.org/2000/svg" width="26.837" height="16" viewBox="0 0 26.837 16">
  <path id="Icon_awesome-arrow-right" data-name="Icon awesome-arrow-right" d="M-10.564,3.719l-.813-.813a.876.876,0,0,0-1.242,0l-7.122,7.119a.876.876,0,0,0,0,1.242l7.122,7.123a.876.876,0,0,0,1.242,0l.813-.813a.88.88,0,0,0-.015-1.257l-4.415-4.206H5.958a.877.877,0,0,0,.879-.879V10.061a.877.877,0,0,0-.879-.879H-14.993l4.415-4.206A.874.874,0,0,0-10.564,3.719Z" transform="translate(20 -2.647)" fill="#201e1e" opacity="0.999"/>
</svg>
