<svg id="Group_291" data-name="Group 291" xmlns="http://www.w3.org/2000/svg" width="36.402" height="47.134" viewBox="0 0 36.402 47.134">
  <path id="Union_5" data-name="Union 5" d="M15.225,46.47a32.6,32.6,0,0,1-5.533-3.007,23.831,23.831,0,0,1-4.7-4.19,20.9,20.9,0,0,1-3.713-6.151A19.641,19.641,0,0,1,.019,26.034c.006-1.717,0-3.463,0-5.15q0-1.142,0-2.284c0-.844,0-1.7.009-2.531C.04,14.121.05,12.108,0,10.131A3.537,3.537,0,0,1,.6,7.795a3.487,3.487,0,0,1,2.264-1.18A31.511,31.511,0,0,0,13.128,2.848c.978-.571,1.933-1.228,2.857-1.863L16.5.633A3.094,3.094,0,0,1,18.235,0a2.8,2.8,0,0,1,1.687.646,32.362,32.362,0,0,0,6.569,3.806,35.995,35.995,0,0,0,7.263,2.234,4.615,4.615,0,0,1,1.6.634A2.439,2.439,0,0,1,36.4,9.5c-.007,1.132-.006,2.284,0,3.4,0,.812,0,1.651,0,2.476,0,1.136,0,2.292,0,3.41,0,2.769.008,5.632-.058,8.448A17.373,17.373,0,0,1,35.3,32.744,20.617,20.617,0,0,1,32.66,37.7a23.156,23.156,0,0,1-5.122,5.186A31.358,31.358,0,0,1,21.2,46.467a7.041,7.041,0,0,1-5.974,0ZM17.151,2.01a31.56,31.56,0,0,1-5.306,3.242A36.585,36.585,0,0,1,2.817,8.176c-1.037.2-1.291.514-1.291,1.594,0,5.941,0,11.264,0,16.274a18.452,18.452,0,0,0,1.111,6.392,19.111,19.111,0,0,0,3.277,5.6A22.939,22.939,0,0,0,11.1,42.623a28.142,28.142,0,0,0,6.26,2.977,2.786,2.786,0,0,0,.871.136,2.4,2.4,0,0,0,.751-.112,25.038,25.038,0,0,0,10.364-6.307A20.286,20.286,0,0,0,33.4,33.391a18.018,18.018,0,0,0,1.487-7.009c.025-1.776.019-3.583.013-5.331,0-.791-.006-1.609-.006-2.413v-.233h0V9.9c0-1.255-.212-1.517-1.416-1.753A37.786,37.786,0,0,1,26.011,5.9,31.555,31.555,0,0,1,19.25,2a1.806,1.806,0,0,0-1.036-.479A1.87,1.87,0,0,0,17.151,2.01Z" transform="translate(0 0)" fill="#08558c"/>
  <path id="Union_6" data-name="Union 6" d="M11.372,22.82A11.445,11.445,0,0,1,0,11.407,11.275,11.275,0,0,1,.9,6.982,11.542,11.542,0,0,1,6.965.9,11.161,11.161,0,0,1,11.372,0h.061A11.444,11.444,0,0,1,22.8,11.413a11.261,11.261,0,0,1-.9,4.424,11.546,11.546,0,0,1-6.064,6.08,11.151,11.151,0,0,1-4.407.9ZM1.507,11.406a9.77,9.77,0,0,0,.778,3.841,10.017,10.017,0,0,0,5.26,5.282,9.653,9.653,0,0,0,3.891.783,9.9,9.9,0,0,0-.023-19.805h-.019A9.923,9.923,0,0,0,1.507,11.406Z" transform="translate(6.807 11.713)" fill="#08558c"/>
  <path id="Union_7" data-name="Union 7" d="M4.408,10.053C3.236,8.9,2.01,7.676.55,6.2a1.794,1.794,0,0,1-.026-2.56c.315-.334.736-.77,1.192-1.183a1.812,1.812,0,0,1,1.226-.5,1.816,1.816,0,0,1,1.285.565c.371.374.727.756,1.1,1.161l.35.377.916-.917C7.383,2.349,8.134,1.6,8.885.845A2.309,2.309,0,0,1,10.458,0a2.321,2.321,0,0,1,1.589.85l.2.2c.23.224.467.456.686.7a1.835,1.835,0,0,1,.478,1.226,1.726,1.726,0,0,1-.5,1.21c-2.353,2.393-4.161,4.21-5.863,5.892a1.846,1.846,0,0,1-1.3.586A1.919,1.919,0,0,1,4.408,10.053ZM2.914,3.472a.735.735,0,0,0-.1.031l-.258.244a9.607,9.607,0,0,0-.974,1.011.664.664,0,0,0,.094.423c.925.955,1.885,1.909,2.814,2.83q.5.5,1,.991a.358.358,0,0,0,.232.128.4.4,0,0,0,.256-.142c.195-.19.392-.385.582-.575L7.849,7.128c1.232-1.225,2.506-2.492,3.757-3.74.2-.2.29-.333.292-.426s-.088-.224-.279-.418c-.217-.221-.434-.439-.694-.7-.227-.224-.37-.325-.465-.325s-.232.1-.451.317Q9.231,2.621,8.457,3.4c-.642.648-1.306,1.318-1.96,1.975a1.155,1.155,0,0,1-.766.431,1.183,1.183,0,0,1-.778-.44c-.209-.209-.42-.422-.624-.629-.334-.338-.679-.688-1.023-1.025a1.94,1.94,0,0,0-.293-.22L2.958,3.46Z" transform="translate(11.509 18.429)" fill="#08558c"/>
</svg>
