<svg width="1633" height="2911" viewBox="0 0 1633 2911" fill="none" xmlns="http://www.w3.org/2000/svg">
<path d="M220.813 560.49C299.423 618.51 398.733 668.55 514.613 670.81C677.933 674 752.843 579.93 931.293 566.64C1019.06 560.1 1127.95 573.41 1256.07 635.97" stroke="url(#paint0_linear_1595_986)" stroke-width="50" stroke-linecap="round" stroke-linejoin="round"></path>
<path d="M1274.07 477.9C1298.18 477.99 1332.03 478.69 1372.46 481.47C1429.47 485.38 1458.33 487.53 1475.69 497.05C1511.62 516.76 1520.66 561.17 1523.33 635.53C1526.25 716.6 1520.15 792.36 1471.72 1011.14C1456.42 1080.25 1447.27 1116.77 1410.18 1147.88C1358.26 1191.43 1279.11 1201.3 1263.28 1203.27C1233.33 1207 1207.86 1206.25 1189.9 1204.77" stroke="url(#paint1_linear_1595_986)" stroke-width="50" stroke-linecap="round" stroke-linejoin="round"></path>
<path d="M1284.81 392.96C1313.95 390.9 1357.17 390.19 1408.19 398.38C1459.36 406.6 1512.75 415.17 1551.12 450.31C1582.77 479.29 1591.29 514.5 1596.78 545.51C1615.3 650.16 1605.91 744.45 1590.82 843.23C1589.39 852.62 1569 982.15 1517.37 1123.64C1507.38 1151.02 1493.74 1185.64 1457.81 1215.38C1424.12 1243.27 1387.14 1253.37 1320.83 1270.77C1285.51 1280.04 1235.25 1291.15 1172.96 1298" stroke="url(#paint2_linear_1595_986)" stroke-width="50" stroke-linecap="round" stroke-linejoin="round"></path>
<path d="M999.033 25H477.773V121.62H999.033V25Z" stroke="url(#paint3_linear_1595_986)" stroke-width="50" stroke-linecap="round" stroke-linejoin="round"></path>
<path d="M734.074 2426.89C887.592 2426.89 1012.04 2318.38 1012.04 2184.52C1012.04 2050.66 887.592 1942.15 734.074 1942.15C580.555 1942.15 456.104 2050.66 456.104 2184.52C456.104 2318.38 580.555 2426.89 734.074 2426.89Z" stroke="url(#paint4_linear_1595_986)" stroke-width="50" stroke-linecap="round" stroke-linejoin="round"></path>
<path d="M734.073 1941.8V2171.82" stroke="url(#paint5_linear_1595_986)" stroke-width="50" stroke-linecap="round" stroke-linejoin="round"></path>
<path d="M161.723 2824.03C160.823 2837.24 159.923 2850.45 159.023 2863.67C158.223 2875.34 163.993 2885.53 171.393 2885.53H231.573C237.993 2885.53 243.353 2877.78 243.963 2867.65C244.203 2863.7 244.433 2859.75 244.673 2855.79" stroke="url(#paint6_linear_1595_986)" stroke-width="50" stroke-linecap="round" stroke-linejoin="round"></path>
<path d="M1321.95 2824.03C1322.85 2837.24 1323.75 2850.45 1324.65 2863.67C1325.45 2875.34 1319.68 2885.53 1312.28 2885.53H1252.1C1245.68 2885.53 1240.32 2877.78 1239.71 2867.65C1239.47 2863.7 1239.24 2859.75 1239 2855.79" stroke="url(#paint7_linear_1595_986)" stroke-width="50" stroke-linecap="round" stroke-linejoin="round"></path>
<path d="M90.0332 220.09C119.863 251.35 165.523 305.95 195.243 381.96C236.523 487.53 211.993 544.66 225.023 745.31C230.533 830.26 239.573 891.48 252.813 981.23C274.573 1128.69 300.453 1241.17 312.373 1291.2C330.683 1368.08 355.003 1458.92 387.573 1560.28" stroke="url(#paint8_linear_1595_986)" stroke-width="50" stroke-linecap="round" stroke-linejoin="round"></path>
<path d="M1308.93 220.09C1298.67 289.13 1283.08 399.09 1267.24 535.12C1245.93 718.18 1244.66 772.53 1219.6 983.43C1195.72 1184.37 1180.77 1270.56 1158.06 1364.24C1138.25 1445.96 1117.51 1512.85 1102.28 1558.67" stroke="url(#paint9_linear_1595_986)" stroke-width="50" stroke-linecap="round" stroke-linejoin="round"></path>
<path d="M266.883 126.62H1215.46C1267.05 126.62 1308.93 168.5 1308.93 220.09H173.413C173.413 168.5 215.293 126.62 266.883 126.62Z" stroke="url(#paint10_linear_1595_986)" stroke-width="50" stroke-linecap="round" stroke-linejoin="round"></path>
<path d="M90.0332 220.09H173.413" stroke="url(#paint11_linear_1595_986)" stroke-width="50" stroke-linecap="round" stroke-linejoin="round"></path>
<path d="M420.764 1025.96L553.114 1558.68" stroke="url(#paint12_linear_1595_986)" stroke-width="50" stroke-linecap="round" stroke-linejoin="round"></path>
<path d="M1034.87 1019.73L960.753 1556.7" stroke="url(#paint13_linear_1595_986)" stroke-width="50" stroke-linecap="round" stroke-linejoin="round"></path>
<path d="M301.283 1563.25C273.623 1674.36 230.173 1844.93 172.963 2052.95C33.4933 2560.13 -15.9667 2665.37 61.7733 2755.82C142.063 2849.24 356.203 2848.77 784.483 2847.83C1146.5 2847.04 1328.96 2845.1 1399.98 2769.67C1484.09 2680.33 1442.25 2563.57 1300.71 2007.94C1251.82 1816.04 1213.48 1659.86 1189.52 1561.29C1046.63 1556.52 898.263 1554.02 744.773 1554.37C591.713 1554.72 443.763 1557.87 301.273 1563.26L301.283 1563.25Z" stroke="url(#paint14_linear_1595_986)" stroke-width="50" stroke-linecap="round" stroke-linejoin="round"></path>
<path d="M667.434 1373.68C686.537 1373.68 702.024 1360.18 702.024 1343.52C702.024 1326.86 686.537 1313.36 667.434 1313.36C648.33 1313.36 632.844 1326.86 632.844 1343.52C632.844 1360.18 648.33 1373.68 667.434 1373.68Z" stroke="url(#paint15_linear_1595_986)" stroke-width="50" opacity="0" stroke-linecap="round" stroke-linejoin="round"></path>
<path d="M786.394 1220.08C805.497 1220.08 820.984 1206.58 820.984 1189.92C820.984 1173.26 805.497 1159.76 786.394 1159.76C767.29 1159.76 751.804 1173.26 751.804 1189.92C751.804 1206.58 767.29 1220.08 786.394 1220.08Z" stroke="url(#paint16_linear_1595_986)" stroke-width="50" opacity="0" stroke-linecap="round" stroke-linejoin="round"></path>
<path d="M667.434 1061.9C680.943 1061.9 691.894 1052.35 691.894 1040.58C691.894 1028.81 680.943 1019.26 667.434 1019.26C653.925 1019.26 642.974 1028.81 642.974 1040.58C642.974 1052.35 653.925 1061.9 667.434 1061.9Z" stroke="url(#paint17_linear_1595_986)" stroke-width="50" opacity="0" stroke-linecap="round" stroke-linejoin="round"></path>
<path d="M810.854 836.65C824.362 836.65 835.314 827.105 835.314 815.33C835.314 803.555 824.362 794.01 810.854 794.01C797.345 794.01 786.394 803.555 786.394 815.33C786.394 827.105 797.345 836.65 810.854 836.65Z" stroke="url(#paint18_linear_1595_986)" stroke-width="50" opacity="0" stroke-linecap="round" stroke-linejoin="round"></path>
<defs>
<linearGradient id="paint0_linear_1595_986" x1="203.313" y1="615.69" x2="1273.57" y2="615.69" gradientUnits="userSpaceOnUse">
<stop stop-color="#075888"></stop>
<stop offset="1" stop-color="#287387"></stop>
</linearGradient>
<linearGradient id="paint1_linear_1595_986" x1="1172.4" y1="841.94" x2="1541.44" y2="841.94" gradientUnits="userSpaceOnUse">
<stop stop-color="#075888"></stop>
<stop offset="1" stop-color="#287387"></stop>
</linearGradient>
<linearGradient id="paint2_linear_1595_986" x1="1155.47" y1="844.81" x2="1624.53" y2="844.81" gradientUnits="userSpaceOnUse">
<stop stop-color="#075888"></stop>
<stop offset="1" stop-color="#287387"></stop>
</linearGradient>
<linearGradient id="paint3_linear_1595_986" x1="455.883" y1="73.31" x2="1020.93" y2="73.31" gradientUnits="userSpaceOnUse">
<stop stop-color="#075888"></stop>
<stop offset="1" stop-color="#287387"></stop>
</linearGradient>
<linearGradient id="paint4_linear_1595_986" x1="438.614" y1="2184.52" x2="1029.54" y2="2184.52" gradientUnits="userSpaceOnUse">
<stop stop-color="#075888"></stop>
<stop offset="1" stop-color="#287387"></stop>
</linearGradient>
<linearGradient id="paint5_linear_1595_986" x1="0" y1="0" x2="0" y2="0" gradientUnits="userSpaceOnUse">
<stop stop-color="#075888"></stop>
<stop offset="1" stop-color="#287387"></stop>
</linearGradient>
<linearGradient id="paint6_linear_1595_986" x1="139.943" y1="2854.78" x2="263.663" y2="2854.78" gradientUnits="userSpaceOnUse">
<stop stop-color="#075888"></stop>
<stop offset="1" stop-color="#287387"></stop>
</linearGradient>
<linearGradient id="paint7_linear_1595_986" x1="1220.01" y1="2854.78" x2="1343.72" y2="2854.78" gradientUnits="userSpaceOnUse">
<stop stop-color="#075888"></stop>
<stop offset="1" stop-color="#287387"></stop>
</linearGradient>
<linearGradient id="paint8_linear_1595_986" x1="72.5332" y1="890.19" x2="405.073" y2="890.19" gradientUnits="userSpaceOnUse">
<stop stop-color="#075888"></stop>
<stop offset="1" stop-color="#287387"></stop>
</linearGradient>
<linearGradient id="paint9_linear_1595_986" x1="1084.77" y1="889.38" x2="1326.43" y2="889.38" gradientUnits="userSpaceOnUse">
<stop stop-color="#075888"></stop>
<stop offset="1" stop-color="#287387"></stop>
</linearGradient>
<linearGradient id="paint10_linear_1595_986" x1="155.913" y1="173.36" x2="1326.43" y2="173.36" gradientUnits="userSpaceOnUse">
<stop stop-color="#075888"></stop>
<stop offset="1" stop-color="#287387"></stop>
</linearGradient>
<linearGradient id="paint11_linear_1595_986" x1="0" y1="0" x2="0" y2="0" gradientUnits="userSpaceOnUse">
<stop stop-color="#075888"></stop>
<stop offset="1" stop-color="#287387"></stop>
</linearGradient>
<linearGradient id="paint12_linear_1595_986" x1="403.264" y1="1292.32" x2="570.614" y2="1292.32" gradientUnits="userSpaceOnUse">
<stop stop-color="#075888"></stop>
<stop offset="1" stop-color="#287387"></stop>
</linearGradient>
<linearGradient id="paint13_linear_1595_986" x1="943.253" y1="1288.22" x2="1052.37" y2="1288.22" gradientUnits="userSpaceOnUse">
<stop stop-color="#075888"></stop>
<stop offset="1" stop-color="#287387"></stop>
</linearGradient>
<linearGradient id="paint14_linear_1595_986" x1="7.50333" y1="2201.16" x2="1460.64" y2="2201.16" gradientUnits="userSpaceOnUse">
<stop stop-color="#075888"></stop>
<stop offset="1" stop-color="#287387"></stop>
</linearGradient>
<linearGradient id="paint15_linear_1595_986" x1="617.844" y1="1343.52" x2="717.014" y2="1343.52" gradientUnits="userSpaceOnUse">
<stop stop-color="#075888"></stop>
<stop offset="1" stop-color="#287387"></stop>
</linearGradient>
<linearGradient id="paint16_linear_1595_986" x1="736.814" y1="1189.92" x2="835.984" y2="1189.92" gradientUnits="userSpaceOnUse">
<stop stop-color="#075888"></stop>
<stop offset="1" stop-color="#287387"></stop>
</linearGradient>
<linearGradient id="paint17_linear_1595_986" x1="627.974" y1="1040.58" x2="706.884" y2="1040.58" gradientUnits="userSpaceOnUse">
<stop stop-color="#075888"></stop>
<stop offset="1" stop-color="#287387"></stop>
</linearGradient>
<linearGradient id="paint18_linear_1595_986" x1="771.394" y1="815.33" x2="850.304" y2="815.33" gradientUnits="userSpaceOnUse">
<stop stop-color="#075888"></stop>
<stop offset="1" stop-color="#287387"></stop>
</linearGradient>
</defs>
</svg>