<svg width="94" height="169" viewBox="0 0 94 169" fill="none" xmlns="http://www.w3.org/2000/svg">
<path d="M12.1521 32.1683C16.7497 35.5616 22.5579 38.4884 29.3352 38.6206C38.8871 38.807 43.2682 33.3055 53.7051 32.528C58.8384 32.1456 65.207 32.924 72.7001 36.5829" stroke="#FFB645" stroke-width="5" stroke-linecap="round" stroke-linejoin="round"/>
<path d="M73.753 27.3381C75.1631 27.3434 77.1427 27.3843 79.5074 27.5468C82.8417 27.7755 84.5295 27.9012 85.5448 28.4581C87.6463 29.6108 88.175 32.2082 88.331 36.5571C88.5019 41.2986 88.1451 45.7294 85.3127 58.525C84.4179 62.567 83.8825 64.7029 81.7134 66.5224C78.6769 69.0694 74.0477 69.6466 73.1218 69.7618C71.3702 69.98 69.8805 69.9361 68.8301 69.8495" stroke="#FFB645" stroke-width="5" stroke-linecap="round" stroke-linejoin="round"/>
<path d="M74.381 22.3703C76.0853 22.2498 78.613 22.2085 81.5969 22.6874C84.5897 23.1681 87.7122 23.6692 89.9562 25.7246C91.8075 27.4194 92.3055 29.4789 92.6268 31.2924C93.7099 37.4129 93.1607 42.9276 92.2781 48.7047C92.1946 49.2539 91.002 56.8295 87.9825 65.1047C87.3982 66.706 86.6004 68.7308 84.4991 70.4702C82.5285 72.1014 80.3658 72.692 76.4876 73.7096C74.4219 74.2519 71.4824 74.9015 67.8394 75.3023" stroke="#FFB645" stroke-width="5" stroke-linecap="round" stroke-linejoin="round"/>
<path d="M57.667 0.849998H27.1807V6.50092H57.667V0.849998Z" stroke="#FFB645" stroke-width="5" stroke-linecap="round" stroke-linejoin="round"/>
<path d="M42.1708 141.326C51.1493 141.326 58.4281 134.98 58.4281 127.151C58.4281 119.322 51.1493 112.976 42.1708 112.976C33.1921 112.976 25.9136 119.322 25.9136 127.151C25.9136 134.98 33.1921 141.326 42.1708 141.326Z" stroke="#FFB645" stroke-width="5" stroke-linecap="round" stroke-linejoin="round"/>
<path d="M42.1708 112.955V126.408" stroke="#FFB645" stroke-width="5" stroke-linecap="round" stroke-linejoin="round"/>
<path d="M8.69623 164.553C8.64365 165.326 8.59106 166.098 8.53824 166.872C8.49164 167.554 8.82911 168.15 9.26194 168.15H12.7815C13.1569 168.15 13.4705 167.697 13.5061 167.104C13.5202 166.873 13.5336 166.642 13.5477 166.411" stroke="#FFB645" stroke-width="5" stroke-linecap="round" stroke-linejoin="round"/>
<path d="M76.5529 164.553C76.6057 165.326 76.6583 166.098 76.7109 166.872C76.7577 167.554 76.4202 168.15 75.9874 168.15H72.4677C72.0922 168.15 71.7789 167.697 71.743 167.104C71.7291 166.873 71.7155 166.642 71.7017 166.411" stroke="#FFB645" stroke-width="5" stroke-linecap="round" stroke-linejoin="round"/>
<path d="M4.50317 12.2599C6.24787 14.0882 8.91823 17.2815 10.6565 21.7271C13.0709 27.9015 11.6361 31.2427 12.3981 42.9778C12.7205 47.9461 13.2491 51.5266 14.0235 56.7758C15.2962 65.4001 16.8098 71.9785 17.5069 74.9046C18.5779 79.4009 20.0002 84.7137 21.905 90.6418" stroke="#FFB645" stroke-width="5" stroke-linecap="round" stroke-linejoin="round"/>
<path d="M75.7919 12.2599C75.192 16.2978 74.2802 22.729 73.3536 30.6846C72.1075 41.3911 72.0332 44.5698 70.5674 56.9043C69.1709 68.6564 68.2964 73.6974 66.9683 79.1763C65.8096 83.9558 64.5967 87.868 63.7059 90.5477" stroke="#FFB645" stroke-width="5" stroke-linecap="round" stroke-linejoin="round"/>
<path d="M14.8467 6.79345H70.325C73.3424 6.79345 75.7916 9.24272 75.7916 12.2601H9.38C9.38 9.24272 11.8295 6.79345 14.8467 6.79345Z" stroke="#FFB645" stroke-width="5" stroke-linecap="round" stroke-linejoin="round"/>
<path d="M4.50317 12.2599H9.37973" stroke="#FFB645" stroke-width="5" stroke-linecap="round" stroke-linejoin="round"/>
<path d="M23.8467 59.3919L31.5872 90.5484" stroke="#FFB645" stroke-width="5" stroke-linecap="round" stroke-linejoin="round"/>
<path d="M59.7633 59.0274L55.4283 90.4325" stroke="#FFB645" stroke-width="5" stroke-linecap="round" stroke-linejoin="round"/>
<path d="M16.8585 90.8156C15.241 97.3138 12.6997 107.29 9.35367 119.456C1.1966 149.119 -1.69601 155.274 2.85072 160.564C7.5466 166.027 20.0707 166 45.1188 165.945C66.2918 165.899 76.9632 165.785 81.1168 161.374C86.0361 156.149 83.589 149.32 75.311 116.824C72.4516 105.6 70.2093 96.4658 68.8078 90.7009C60.4509 90.4219 51.7733 90.2757 42.7965 90.2962C33.8445 90.3165 25.1922 90.5003 16.8585 90.8156Z" stroke="#FFB645" stroke-width="5" stroke-linecap="round" stroke-linejoin="round"/>
<path d="M38.2731 79.7286C39.3902 79.7286 40.296 78.9387 40.296 77.9645C40.296 76.9904 39.3902 76.2007 38.2731 76.2007C37.1558 76.2007 36.25 76.9904 36.25 77.9645C36.25 78.9387 37.1558 79.7286 38.2731 79.7286Z" stroke="#FFB645" stroke-width="5" stroke-linecap="round" stroke-linejoin="round"/>
<path d="M45.2307 70.7451C46.348 70.7451 47.2536 69.9552 47.2536 68.981C47.2536 68.0068 46.348 67.2172 45.2307 67.2172C44.1133 67.2172 43.2075 68.0068 43.2075 68.981C43.2075 69.9552 44.1133 70.7451 45.2307 70.7451Z" stroke="#FFB645" stroke-width="5" stroke-linecap="round" stroke-linejoin="round"/>
<path d="M38.2729 61.4936C39.0631 61.4936 39.7034 60.9356 39.7034 60.2468C39.7034 59.5582 39.0631 58.9999 38.2729 58.9999C37.4828 58.9999 36.8423 59.5582 36.8423 60.2468C36.8423 60.9356 37.4828 61.4936 38.2729 61.4936Z" stroke="#FFB645" stroke-width="5" stroke-linecap="round" stroke-linejoin="round"/>
<path d="M46.6611 78.3199C47.4513 78.3199 48.0918 77.7616 48.0918 77.0728C48.0918 76.3843 47.4513 75.826 46.6611 75.826C45.8712 75.826 45.2307 76.3843 45.2307 77.0728C45.2307 77.7616 45.8712 78.3199 46.6611 78.3199Z" stroke="#FFB645" stroke-width="5" stroke-linecap="round" stroke-linejoin="round"/>
</svg>
