<svg xmlns="http://www.w3.org/2000/svg" width="9.591" height="9.591" viewBox="0 0 9.591 9.591">
  <defs>
    <style>
      .cls-1 {
        fill: #fff;
      }
    </style>
  </defs>
  <path id="noun-call-5183933_-_Outline" data-name="noun-call-5183933 - Outline" class="cls-1" d="M92.958,26.195h0a4.014,4.014,0,0,1-2.839-1.177L87.6,22.5a4.023,4.023,0,0,1-.316-5.33,1.509,1.509,0,0,1,1.183-.57h.011a1.506,1.506,0,0,1,1.184.583l.876,1.15a1.294,1.294,0,0,1-.113,1.693l-.026.026-.03.021a.488.488,0,0,0-.2.332.232.232,0,0,0,.068.148l1.829,1.829a.238.238,0,0,0,.168.068.241.241,0,0,0,.171-.071l.188-.188a1.295,1.295,0,0,1,1.692-.115l1.148.874a1.515,1.515,0,0,1,.021,2.378,4.032,4.032,0,0,1-2.417.863h-.072Zm-4.5-8.5a.406.406,0,0,0-.321.156,2.93,2.93,0,0,0,.23,3.882l2.515,2.515a2.931,2.931,0,0,0,3.882.23.421.421,0,0,0-.008-.656l-1.142-.87a.2.2,0,0,0-.247.006,1.517,1.517,0,0,1-1.172.589,1.269,1.269,0,0,1-.914-.389L89.534,21.4l-.009.008a1.609,1.609,0,0,1-.453-1.026,1.327,1.327,0,0,1,.389-.939l.189-.189A.2.2,0,0,0,89.666,19l-.872-1.145a.414.414,0,0,0-.326-.161Z" transform="translate(-86.422 -16.604)"/>
</svg>
