<svg xmlns="http://www.w3.org/2000/svg" xmlns:xlink="http://www.w3.org/1999/xlink" width="67.284" height="48.197" viewBox="0 0 67.284 48.197">
  <defs>
    <linearGradient id="linear-gradient" x1="0.072" x2="0.928" y2="0.855" gradientUnits="objectBoundingBox">
      <stop offset="0" stop-color="#ffb645"/>
      <stop offset="1" stop-color="#ffb645"/>
    </linearGradient>
  </defs>
  <path id="Motor" d="M6.582,48.2A.666.666,0,0,1,6,47.9a.689.689,0,0,1-.073-.658l2.195-5.851a.741.741,0,0,1,.658-.438H37.3V38.034H32.181A1.467,1.467,0,0,1,30.718,39.5a4.4,4.4,0,0,1-4.388-4.388,4.4,4.4,0,0,1-4.389-4.388V26.33H19.748v6.582a.692.692,0,0,1-.732.732H8.046a.661.661,0,0,1-.512-.22L5.34,31.231a.665.665,0,0,1-.22-.512V26.33H.732A.691.691,0,0,1,0,25.6V19.747a.69.69,0,0,1,.732-.731H5.12V14.628a.664.664,0,0,1,.219-.512l2.193-2.194a.665.665,0,0,1,.512-.22H9.507V7.314H8.776a.66.66,0,0,1-.512-.22L6.8,5.633a.666.666,0,0,1-.22-.512V.732A.692.692,0,0,1,7.314,0h11.7a.691.691,0,0,1,.732.732V5.12a.663.663,0,0,1-.22.512L18.064,7.094a.663.663,0,0,1-.512.22h-.731V11.7h2.193a.691.691,0,0,1,.732.732v6.582H21.94V14.628a4.4,4.4,0,0,1,4.388-4.388,4.4,4.4,0,0,1,4.39-4.388A1.466,1.466,0,0,1,32.18,7.314H58.509a1.467,1.467,0,0,1,1.463-1.463H62.9a4.4,4.4,0,0,1,4.387,4.388V35.106A4.4,4.4,0,0,1,62.9,39.494H59.97a1.466,1.466,0,0,1-1.461-1.463H53.388v2.926h5.121a.741.741,0,0,1,.658.438l2.194,5.851a.708.708,0,0,1-.073.658.9.9,0,0,1-.585.293Zm1.026-1.39H59.679L58,42.418H9.289Zm31.156-5.851H51.927V38.031H38.763ZM59.973,38.03H62.9A2.934,2.934,0,0,0,65.824,35.1V10.238A2.934,2.934,0,0,0,62.9,7.313H59.973ZM27.792,10.238V35.1a2.933,2.933,0,0,0,2.926,2.926V7.313A2.934,2.934,0,0,0,27.792,10.238Zm4.39,26.329H58.509V8.775H32.181ZM23.4,14.627V30.716a2.933,2.933,0,0,0,2.924,2.926V11.7A2.934,2.934,0,0,0,23.4,14.627Zm-16.821.293V30.425L8.338,32.18h9.946V13.165H8.338Zm13.164,9.947h2.195V20.478H19.747Zm-18.284,0H5.12V20.478H1.462ZM10.97,11.7h4.388V7.314H10.97ZM8.044,4.827,9.069,5.851h8.19l1.025-1.025V1.463H8.044ZM37.3,30.487a2.194,2.194,0,0,1,0-4.388H53.39a2.194,2.194,0,0,1,0,4.388Zm-.73-2.195a.691.691,0,0,0,.73.732H53.39a.731.731,0,1,0,0-1.463H37.3A.691.691,0,0,0,36.568,28.292Zm.73-10.2a2.194,2.194,0,0,1,0-4.388H53.39a2.194,2.194,0,0,1,0,4.388Zm-.73-2.195a.691.691,0,0,0,.73.732H53.39a.732.732,0,0,0,0-1.464H37.3A.692.692,0,0,0,36.568,15.9Z" fill="url(#linear-gradient)"/>
</svg>
