<svg xmlns="http://www.w3.org/2000/svg" fill="none" viewBox="0 0 29 29" height="29" width="29">
<path fill="#0074C9" d="M2.11338 19.3333C2.23542 19.6439 2.08196 19.9943 1.77021 20.1151C1.46692 20.2348 1.10925 20.0861 0.988417 19.772C0.332292 18.0936 1.68327e-07 16.321 1.68327e-07 14.5C-0.00120817 6.50446 6.50325 0 14.4988 0C18.1141 0 21.5035 1.31829 24.1655 3.712V0.604167C24.1655 0.270667 24.4361 0 24.7696 0C25.1031 0 25.3738 0.270667 25.3738 0.604167V4.22917C25.3738 5.22846 24.5606 6.04167 23.5613 6.04167H19.9363C19.6028 6.04167 19.3321 5.771 19.3321 5.4375C19.3321 5.104 19.6028 4.83333 19.9363 4.83333H23.5613C23.5722 4.83333 23.5806 4.82729 23.5915 4.82729C21.1193 2.49883 17.9196 1.20833 14.4988 1.20833C7.17025 1.20833 1.20713 7.17146 1.20713 14.5C1.20713 16.1699 1.51163 17.7963 2.11338 19.3333ZM28.0104 9.22804C27.8883 8.91629 27.5379 8.76283 27.2286 8.88488C26.9168 9.00692 26.7634 9.35733 26.8854 9.66667C27.4872 11.2037 27.7917 12.8301 27.7917 14.5C27.7917 21.8285 21.8285 27.7917 14.5 27.7917C11.0792 27.7917 7.87954 26.5024 5.40729 24.1727C5.41817 24.1727 5.42663 24.1667 5.4375 24.1667H9.0625C9.396 24.1667 9.66667 23.896 9.66667 23.5625C9.66667 23.229 9.396 22.9583 9.0625 22.9583H5.4375C4.43821 22.9583 3.625 23.7715 3.625 24.7708V28.3958C3.625 28.7293 3.89567 29 4.22917 29C4.56267 29 4.83333 28.7293 4.83333 28.3958V25.288C7.49408 27.6817 10.8835 29 14.5 29C22.4955 29 29 22.4955 29 14.5C29 12.679 28.6677 10.9052 28.0116 9.22804H28.0104ZM12.6863 22.3542V21.5156C11.3656 21.176 10.1657 20.4692 9.23046 19.4795L8.49942 19.8819C7.62337 20.3665 6.51896 20.045 6.03683 19.1726C5.55471 18.2954 5.87371 17.1898 6.74854 16.7088L7.48079 16.304C7.32733 15.7108 7.25 15.1066 7.25 14.5C7.25 13.8934 7.32733 13.2893 7.48079 12.696L6.74854 12.2912C5.87371 11.8078 5.55592 10.7034 6.03562 9.82858C6.52017 8.95375 7.627 8.63354 8.49942 9.11808L9.23046 9.52046C10.1657 8.53204 11.3668 7.82517 12.6863 7.48442V6.64583C12.6863 5.64654 13.4995 4.83333 14.4988 4.83333C15.4981 4.83333 16.3113 5.64654 16.3113 6.64583V7.48442C17.632 7.82396 18.8319 8.53083 19.7671 9.52046L20.4982 9.11808C21.3718 8.63113 22.4774 8.95375 22.9608 9.82738C23.4417 10.7034 23.1239 11.8078 22.2503 12.2912L21.5168 12.696C21.6703 13.2893 21.7476 13.8946 21.7476 14.5C21.7476 15.1054 21.6703 15.7108 21.5168 16.304L22.2503 16.7088C23.1251 17.191 23.4429 18.2954 22.962 19.1714C22.4762 20.0475 21.3718 20.3665 20.4982 19.8819L19.7671 19.4795C18.8319 20.468 17.6308 21.1748 16.3113 21.5156V22.3542C16.3113 23.3535 15.4981 24.1667 14.4988 24.1667C13.4995 24.1667 12.6863 23.3535 12.6863 22.3542ZM13.4004 20.4353C13.6868 20.4885 13.8946 20.7386 13.8946 21.0298V22.3542C13.8946 22.6865 14.1665 22.9583 14.4988 22.9583C14.8311 22.9583 15.103 22.6865 15.103 22.3542V21.0298C15.103 20.7386 15.3108 20.4885 15.5972 20.4353C16.9976 20.178 18.2664 19.4312 19.1678 18.3328C19.3515 18.1069 19.6693 18.0477 19.9266 18.1878L21.0818 18.8246C21.3778 18.9865 21.7452 18.879 21.9047 18.5878C22.0654 18.2966 21.959 17.928 21.6678 17.7661L20.5103 17.1269C20.2553 16.9867 20.1369 16.6835 20.2299 16.4067C20.4378 15.7833 20.5429 15.1416 20.5429 14.5C20.5429 13.8584 20.4378 13.2168 20.2299 12.5908C20.1381 12.3141 20.2565 12.012 20.5115 11.8719L21.669 11.2339C21.959 11.072 22.0666 10.7034 21.9047 10.411C21.7452 10.1222 21.379 10.0147 21.083 10.1754L19.9278 10.8122C19.6729 10.9535 19.3539 10.8919 19.169 10.6672C18.2676 9.56879 16.9988 8.82204 15.5984 8.56467C15.312 8.5115 15.1042 8.26138 15.1042 7.97017V6.64583C15.1042 6.31354 14.8323 6.04167 14.5 6.04167C14.1677 6.04167 13.8958 6.31354 13.8958 6.64583V7.97017C13.8958 8.26138 13.688 8.5115 13.4016 8.56467C12.0012 8.82204 10.7324 9.56879 9.831 10.6672C9.64613 10.8919 9.32713 10.9511 9.07217 10.8122L7.917 10.1754C7.62096 10.0147 7.25483 10.121 7.09413 10.4122C6.93342 10.7022 7.04096 11.072 7.33217 11.2339L8.48854 11.8719C8.7435 12.012 8.86312 12.3141 8.77008 12.5908C8.56225 13.2168 8.45713 13.8584 8.45713 14.5C8.45713 15.1416 8.56225 15.7833 8.77008 16.4067C8.86192 16.6835 8.74471 16.9855 8.48975 17.1269L7.33217 17.7661C7.03975 17.928 6.93342 18.2954 7.09413 18.5878C7.25725 18.879 7.62338 18.9841 7.917 18.8246L9.07217 18.1878C9.32471 18.0477 9.64492 18.1069 9.831 18.3328C10.7324 19.4312 12.0012 20.178 13.4016 20.4353H13.4004ZM14.4988 18.125C14.8323 18.125 15.103 17.8543 15.103 17.5208V11.4792C15.103 11.1457 14.8323 10.875 14.4988 10.875C14.1653 10.875 13.8946 11.1457 13.8946 11.4792V17.5208C13.8946 17.8543 14.1653 18.125 14.4988 18.125ZM16.9155 18.125C17.249 18.125 17.5196 17.8543 17.5196 17.5208V13.8958C17.5196 13.5623 17.249 13.2917 16.9155 13.2917C16.582 13.2917 16.3113 13.5623 16.3113 13.8958V17.5208C16.3113 17.8543 16.582 18.125 16.9155 18.125ZM12.0821 14.5C11.7486 14.5 11.478 14.7707 11.478 15.1042V17.5208C11.478 17.8543 11.7486 18.125 12.0821 18.125C12.4156 18.125 12.6863 17.8543 12.6863 17.5208V15.1042C12.6863 14.7707 12.4156 14.5 12.0821 14.5Z"></path>
</svg>
