<svg xmlns="http://www.w3.org/2000/svg" width="25.024" height="26.03" viewBox="0 0 25.024 26.03">
  <path id="Subtraction_1" data-name="Subtraction 1" d="M-71.957,25.93a.877.877,0,0,1-.624-.258l-6.712-6.7a.164.164,0,0,0-.115-.048.161.161,0,0,0-.094.03,10.221,10.221,0,0,1-5.918,1.873A10.283,10.283,0,0,1-95.7,10.563,10.283,10.283,0,0,1-85.419.3a10.283,10.283,0,0,1,10.28,10.263A10.207,10.207,0,0,1-77.945,17.6a.162.162,0,0,0,0,.228l6.606,6.595a.874.874,0,0,1,.258.623.87.87,0,0,1-.258.622A.873.873,0,0,1-71.957,25.93ZM-85.419,2.06a8.519,8.519,0,0,0-8.517,8.5,8.519,8.519,0,0,0,8.517,8.5,8.519,8.519,0,0,0,8.517-8.5A8.519,8.519,0,0,0-85.419,2.06Z" transform="translate(95.9 -0.1)" fill="#201e1e" stroke="#151515" stroke-linejoin="round" stroke-width="0.4"/>
</svg>
