<svg xmlns="http://www.w3.org/2000/svg" fill="none" viewBox="0 0 40 40" height="40" width="40">
<path stroke-linejoin="round" stroke-miterlimit="10" stroke-width="2" stroke="#0074C9" d="M6.25 21.25V17.5C6.25 9.875 12.375 3.75 20 3.75C27.625 3.75 33.75 9.875 33.75 17.5V21.25"></path>
<path stroke-linejoin="round" stroke-miterlimit="10" stroke-width="2" stroke="#0074C9" d="M33.75 21.25C33.75 28.125 28.75 33.875 22.125 34.875C21 35 20 34.125 20 33C20 32 20.75 31.25 21.75 31.25C22.875 31.25 23.75 32.125 23.75 33.25V33.75"></path>
<path stroke-linejoin="round" stroke-miterlimit="10" stroke-width="2" stroke="#0074C9" d="M11.25 16.25C8.5 16.25 6.25 18.5 6.25 21.25C6.25 24 8.5 26.25 11.25 26.25V16.25Z"></path>
<path stroke-linejoin="round" stroke-miterlimit="10" stroke-width="2" stroke="#0074C9" d="M28.75 26.25C31.5 26.25 33.75 24 33.75 21.25C33.75 18.5 31.5 16.25 28.75 16.25V26.25Z"></path>
<g clip-path="url(#clip0_1353_500)">
<path fill="#0074C9" d="M20.4484 24.6943L20.8736 24.6712L21.2976 24.6182L21.7174 24.534L22.1277 24.4199L22.5299 24.2759L22.9198 24.1033L23.2989 23.9036L23.659 23.6767L24.0041 23.424L24.3302 23.1481L24.6345 22.8492L24.9158 22.5286L25.1739 22.1889L25.4076 21.8302L25.6155 21.4579L25.7935 21.0693L25.9457 20.6712L26.0666 20.2623L26.1576 19.8438L26.2201 19.4212L26.25 18.996L26.25 18.568L26.2201 18.1441L26.1576 17.7215L26.0666 17.303L25.9457 16.8954L25.7935 16.496L25.6155 16.1074L25.4076 15.7351L25.1739 15.3764L24.9158 15.0367L24.6345 14.7161L24.3302 14.4172L24.0041 14.1413L23.659 13.8886L23.2989 13.6617L22.9198 13.462L22.5299 13.2908L22.1277 13.1454L21.7174 13.0327L21.2976 12.9471L20.8736 12.8941L20.4484 12.871L20.0204 12.8778L19.5951 12.9158L19.1753 12.9865L18.7595 13.0856L18.3533 13.2134L17.9565 13.3723L17.572 13.5585L17.2024 13.7718L16.8478 14.0123L16.5136 14.2772L16.1984 14.5639L15.9049 14.875L15.6345 15.2052L15.3886 15.553L15.1671 15.9185L14.9755 16.3003L14.8098 16.6943L14.6739 17.0979L14.5666 17.5123L14.4905 17.9307L14.4443 18.356L14.428 18.7827L14.4443 19.2093L14.4905 19.6346L14.5666 20.053L14.6739 20.4674L14.8098 20.871L14.9755 21.265L15.1671 21.6468L15.3886 22.0123L15.6345 22.3601L15.9049 22.6916L16.1984 23.0014L16.5136 23.2894L16.8478 23.553L17.2024 23.7935L17.572 24.0068L17.9565 24.193L18.3533 24.3506L18.7595 24.4797L19.1753 24.5788L19.5951 24.6481L20.0204 24.6875L20.4484 24.6943ZM20.2405 23.9987L19.837 23.9756L19.4361 23.9199L19.0408 23.8356L18.6522 23.7188L18.2758 23.5734L17.909 23.3995L17.5598 23.1971L17.2255 22.9674L16.9103 22.7134L16.6168 22.4362L16.3451 22.1359L16.0978 21.8166L15.875 21.4797L15.6793 21.125L15.5122 20.7568L15.3736 20.375L15.2636 19.9851L15.1861 19.5884L15.1399 19.1862L15.1236 18.7827L15.1399 18.3791L15.1861 17.9769L15.2636 17.5802L15.3736 17.1903L15.5122 16.8098L15.6793 16.4416L15.875 16.087L16.0978 15.7487L16.3451 15.428L16.6168 15.1291L16.9103 14.8519L17.2255 14.5979L17.5598 14.3682L17.909 14.1658L18.2758 13.9919L18.6522 13.8465L19.0408 13.7297L19.4361 13.6441L19.837 13.5897L20.2405 13.5666L20.644 13.5734L21.0476 13.6142L21.4457 13.6848L21.837 13.7854L22.2201 13.9158L22.5924 14.0761L22.9497 14.2636L23.2921 14.481L23.6168 14.7215L23.9212 14.9878L24.2052 15.2772L24.4647 15.587L24.6997 15.9158L24.909 16.2623L25.091 16.6237L25.2432 16.9987L25.3668 17.3846L25.4606 17.7786L25.5231 18.178L25.5543 18.5802L25.5543 18.9851L25.5231 19.3886L25.4606 19.7881L25.3668 20.1807L25.2432 20.5666L25.091 20.9416L24.909 21.303L24.6997 21.6495L24.4647 21.9797L24.2052 22.2881L23.9212 22.5775L23.6168 22.8438L23.2921 23.0856L22.9497 23.3017L22.5924 23.4892L22.2201 23.6495L21.837 23.7799L21.4457 23.8818L21.0476 23.9511L20.644 23.9919L20.2405 23.9987ZM20.6889 21.9131L20.6889 21.2174L19.9932 21.2174L19.9932 21.9131L20.6889 21.9131ZM20.6889 19.8261L20.6889 15.6522L19.9932 15.6522L19.9932 19.8261L20.6889 19.8261Z"></path>
</g>
<defs>
<clipPath id="clip0_1353_500">
<rect transform="translate(26.9531 26.0869) rotate(-180)" fill="white" height="13.913" width="13.913"></rect>
</clipPath>
</defs>
</svg>
