<svg xmlns="http://www.w3.org/2000/svg" fill="none" viewBox="0 0 29 32" height="32" width="29">
<path stroke-width="1.5" stroke="#0074C9" d="M1 13.6251C1 8.82861 1 6.43042 1.56628 5.62361C2.13255 4.81681 4.38748 4.04494 8.89736 2.50119L9.75658 2.20708C12.1075 1.40236 13.2829 1 14.5 1C15.7171 1 16.8925 1.40236 19.2435 2.20708L20.1026 2.50119C24.6125 4.04494 26.8675 4.81681 27.4337 5.62361C28 6.43042 28 8.82861 28 13.6251C28 14.3494 28 15.1351 28 15.9871C28 24.4441 21.6415 28.5482 17.6521 30.2909C16.57 30.7636 16.0289 31 14.5 31C12.9711 31 12.43 30.7636 11.3478 30.2909C7.35844 28.5482 1 24.4441 1 15.9871C1 15.1351 1 14.3494 1 13.6251Z"></path>
<path fill="#0074C9" d="M14 9C14.8843 9 15.5843 9.8905 16.359 10.1982C17.1337 10.5058 18.347 10.3347 18.9257 10.9153C19.5043 11.496 19.3667 12.5577 19.698 13.3095C20.0293 14.0613 21 14.6788 21 15.5C21 16.3212 20.041 16.9712 19.7097 17.6905C19.3783 18.4098 19.5627 19.5365 18.9373 20.0738C18.347 20.6198 17.1687 20.4833 16.3707 20.791C15.5727 21.0987 14.8843 22 14 22C13.1157 22 12.4157 21.1095 11.641 20.8018C10.8663 20.4942 9.653 20.6653 9.07433 20.0847C8.48633 19.5365 8.63333 18.4423 8.302 17.7013C7.97067 16.9603 7 16.3212 7 15.5C7 14.6788 7.959 14.0288 8.29033 13.3095C8.62167 12.5902 8.43733 11.4635 9.06267 10.9262C9.688 10.3888 10.8313 10.5167 11.641 10.1982C12.4507 9.87967 13.1157 9 14 9ZM14 11.0518C13.0526 11.0518 12.1264 11.3127 11.3386 11.8015C10.5509 12.2903 9.93688 12.985 9.57431 13.7978C9.21174 14.6106 9.11688 15.5049 9.30171 16.3678C9.48655 17.2307 9.94278 18.0232 10.6127 18.6453C11.2827 19.2674 12.1362 19.6911 13.0655 19.8627C13.9947 20.0343 14.9579 19.9462 15.8332 19.6096C16.7085 19.2729 17.4566 18.7028 17.983 17.9713C18.5094 17.2398 18.7903 16.3798 18.7903 15.5C18.7866 14.3213 18.2808 13.1919 17.3832 12.3585C16.4856 11.525 15.2693 11.0553 14 11.0518ZM16.2213 13.5305L16.688 13.9422C16.7366 14.0009 16.763 14.0729 16.763 14.1469C16.763 14.221 16.7366 14.293 16.688 14.3517L13.7153 17.4153C13.6576 17.4772 13.5858 17.5265 13.5051 17.5594C13.4244 17.5924 13.3368 17.6083 13.2487 17.606C13.161 17.6054 13.0744 17.5882 12.9941 17.5554C12.9139 17.5226 12.8417 17.4749 12.782 17.4153L11.1767 15.9333C11.1454 15.9077 11.1203 15.8762 11.1032 15.8409C11.086 15.8056 11.0771 15.7673 11.0771 15.7286C11.0771 15.6899 11.086 15.6516 11.1032 15.6163C11.1203 15.581 11.1454 15.5495 11.1767 15.5238L11.6433 15.1122C11.6732 15.0825 11.7094 15.0589 11.7495 15.0427C11.7896 15.0266 11.8329 15.0182 11.8767 15.0182C11.9204 15.0182 11.9637 15.0266 12.0038 15.0427C12.044 15.0589 12.0801 15.0825 12.11 15.1122L13.2463 16.1955L15.7547 13.5305C15.7846 13.5008 15.8207 13.4772 15.8608 13.4611C15.901 13.4449 15.9443 13.4366 15.988 13.4366C16.0317 13.4366 16.075 13.4449 16.1152 13.4611C16.1553 13.4772 16.1914 13.5008 16.2213 13.5305Z"></path>
</svg>
